<svg xmlns="http://www.w3.org/2000/svg" xmlns:xlink="http://www.w3.org/1999/xlink" width="1080" zoomAndPan="magnify" viewBox="0 0 810 809.999993" height="1080" preserveAspectRatio="xMidYMid meet" version="1.0"><rect x="-81" width="972" fill="#ffffff" y="-80.999999" height="971.999992" fill-opacity="1"/><rect x="-81" width="972" fill="#ffffff" y="-80.999999" height="971.999992" fill-opacity="1"/><path fill="#97b5c1" d="M 231.765625 130.203125 C 227.972656 131.976562 224.234375 133.863281 220.554688 135.867188 C 216.871094 137.867188 213.25 139.976562 209.691406 142.203125 C 206.128906 144.425781 202.632812 146.757812 199.203125 149.199219 C 195.769531 151.636719 192.40625 154.183594 189.113281 156.835938 C 185.820312 159.488281 182.597656 162.242188 179.449219 165.097656 C 176.300781 167.957031 173.230469 170.910156 170.234375 173.964844 C 167.242188 177.019531 164.324219 180.171875 161.488281 183.414062 C 158.65625 186.660156 155.902344 189.996094 153.234375 193.425781 C 150.566406 196.855469 147.988281 200.367188 145.492188 203.972656 C 143 207.574219 140.59375 211.257812 138.277344 215.027344 C 135.964844 218.796875 133.742188 222.644531 131.613281 226.566406 C 129.484375 230.492188 127.449219 234.492188 125.507812 238.566406 C 123.570312 242.636719 121.726562 246.777344 119.984375 250.988281 C 118.238281 255.199219 116.59375 259.472656 115.050781 263.808594 C 113.503906 268.148438 112.058594 272.542969 110.71875 276.996094 C 109.375 281.453125 108.136719 285.957031 107 290.519531 C 105.863281 295.078125 104.832031 299.6875 103.902344 304.34375 C 102.976562 309 102.15625 313.695312 101.4375 318.4375 C 100.722656 323.175781 100.113281 327.953125 99.609375 332.765625 C 99.105469 337.578125 98.707031 342.417969 98.417969 347.292969 C 98.128906 352.164062 97.949219 357.0625 97.871094 361.984375 C 97.796875 366.910156 97.832031 371.847656 97.96875 376.808594 C 98.109375 381.769531 98.359375 386.742188 98.710938 391.726562 C 99.066406 396.710938 99.527344 401.703125 100.097656 406.703125 C 100.664062 411.703125 101.339844 416.699219 102.121094 421.699219 C 102.902344 426.699219 103.785156 431.695312 104.777344 436.683594 C 105.769531 441.675781 106.863281 446.652344 108.0625 451.617188 C 109.261719 456.585938 110.5625 461.535156 111.96875 466.464844 C 113.371094 471.398438 114.878906 476.308594 116.484375 481.191406 C 118.089844 486.078125 119.792969 490.933594 121.597656 495.761719 C 123.402344 500.589844 125.304688 505.382812 127.300781 510.136719 C 129.296875 514.894531 131.390625 519.613281 133.578125 524.289062 C 135.761719 528.964844 138.042969 533.59375 140.410156 538.175781 C 142.78125 542.757812 145.238281 547.289062 147.785156 551.769531 C 150.335938 556.25 152.96875 560.671875 155.6875 565.035156 C 158.40625 569.402344 161.207031 573.703125 164.09375 577.945312 C 166.976562 582.183594 169.941406 586.355469 172.984375 590.460938 C 176.027344 594.566406 179.144531 598.597656 182.335938 602.558594 C 185.53125 606.515625 188.796875 610.398438 192.132812 614.203125 C 195.46875 618.007812 198.871094 621.734375 202.34375 625.375 C 205.816406 629.015625 209.351562 632.570312 212.949219 636.039062 C 216.546875 639.507812 220.203125 642.886719 223.921875 646.171875 C 227.636719 649.460938 231.40625 652.652344 235.234375 655.753906 C 239.058594 658.851562 242.933594 661.851562 246.859375 664.753906 C 250.785156 667.65625 254.753906 670.457031 258.769531 673.15625 C 262.785156 675.855469 266.84375 678.449219 270.9375 680.9375 C 275.035156 683.429688 279.167969 685.808594 283.335938 688.082031 C 287.5 690.355469 291.699219 692.519531 295.925781 694.570312 C 300.15625 696.625 304.410156 698.5625 308.6875 700.386719 C 312.96875 702.214844 317.265625 703.925781 321.585938 705.519531 C 325.90625 707.113281 330.238281 708.59375 334.589844 709.953125 C 338.9375 711.3125 343.296875 712.554688 347.664062 713.679688 C 352.035156 714.800781 356.40625 715.804688 360.785156 716.6875 C 365.160156 717.570312 369.539062 718.332031 373.914062 718.972656 C 378.289062 719.609375 382.660156 720.128906 387.023438 720.523438 C 391.386719 720.921875 395.742188 721.195312 400.082031 721.34375 C 404.421875 721.496094 408.746094 721.523438 413.054688 721.429688 C 417.363281 721.332031 421.648438 721.117188 425.914062 720.777344 C 430.179688 720.4375 434.417969 719.972656 438.628906 719.390625 C 442.839844 718.804688 447.019531 718.101562 451.164062 717.273438 C 455.3125 716.445312 459.421875 715.496094 463.496094 714.429688 C 467.566406 713.359375 471.597656 712.171875 475.589844 710.867188 C 479.578125 709.558594 483.519531 708.132812 487.414062 706.59375 C 491.3125 705.050781 495.15625 703.390625 498.949219 701.617188 C 502.742188 699.84375 506.480469 697.957031 510.160156 695.957031 C 513.84375 693.957031 517.464844 691.84375 521.023438 689.621094 C 524.585938 687.398438 528.082031 685.066406 531.511719 682.625 C 534.945312 680.183594 538.308594 677.636719 541.601562 674.984375 C 544.894531 672.332031 548.117188 669.578125 551.265625 666.722656 C 554.414062 663.867188 557.484375 660.910156 560.480469 657.855469 C 563.476562 654.800781 566.390625 651.652344 569.226562 648.40625 C 572.058594 645.160156 574.8125 641.824219 577.480469 638.398438 C 580.148438 634.96875 582.726562 631.453125 585.222656 627.851562 C 587.71875 624.25 590.121094 620.5625 592.4375 616.792969 C 594.75 613.027344 596.972656 609.179688 599.101562 605.253906 C 601.230469 601.328125 603.265625 597.328125 605.207031 593.257812 C 607.144531 589.183594 608.988281 585.042969 610.730469 580.832031 C 612.476562 576.625 614.121094 572.351562 615.664062 568.011719 C 617.210938 563.675781 618.65625 559.28125 619.996094 554.824219 C 621.339844 550.371094 622.578125 545.863281 623.714844 541.304688 C 624.851562 536.742188 625.882812 532.132812 626.8125 527.480469 C 627.738281 522.824219 628.558594 518.125 629.277344 513.386719 C 629.992188 508.644531 630.601562 503.871094 631.105469 499.058594 C 631.609375 494.246094 632.007812 489.402344 632.296875 484.53125 C 632.585938 479.65625 632.769531 474.757812 632.84375 469.835938 C 632.917969 464.914062 632.886719 459.972656 632.746094 455.011719 C 632.605469 450.054688 632.359375 445.082031 632.003906 440.09375 C 631.648438 435.109375 631.1875 430.117188 630.617188 425.121094 C 630.050781 420.121094 629.375 415.121094 628.59375 410.121094 C 627.816406 405.121094 626.929688 400.125 625.9375 395.136719 C 624.945312 390.148438 623.851562 385.171875 622.652344 380.203125 C 621.453125 375.238281 620.152344 370.289062 618.746094 365.355469 C 617.34375 360.421875 615.839844 355.515625 614.230469 350.628906 C 612.625 345.742188 610.921875 340.886719 609.117188 336.058594 C 607.3125 331.234375 605.410156 326.441406 603.414062 321.683594 C 601.417969 316.925781 599.324219 312.210938 597.136719 307.535156 C 594.953125 302.859375 592.675781 298.230469 590.304688 293.644531 C 587.933594 289.0625 585.476562 284.53125 582.929688 280.050781 C 580.378906 275.574219 577.746094 271.148438 575.027344 266.785156 C 572.308594 262.421875 569.507812 258.117188 566.621094 253.878906 C 563.738281 249.636719 560.773438 245.464844 557.730469 241.359375 C 554.691406 237.257812 551.570312 233.222656 548.378906 229.265625 C 545.183594 225.304688 541.921875 221.421875 538.582031 217.617188 C 535.246094 213.8125 531.84375 210.089844 528.371094 206.449219 C 524.898438 202.808594 521.367188 199.253906 517.765625 195.785156 C 514.167969 192.316406 510.511719 188.9375 506.796875 185.648438 C 503.078125 182.363281 499.308594 179.167969 495.484375 176.070312 C 491.65625 172.972656 487.78125 169.96875 483.855469 167.066406 C 479.929688 164.164062 475.960938 161.363281 471.945312 158.667969 C 467.929688 155.96875 463.875 153.371094 459.777344 150.882812 C 455.679688 148.394531 451.546875 146.011719 447.382812 143.738281 C 443.214844 141.464844 439.015625 139.304688 434.789062 137.25 C 430.558594 135.199219 426.304688 133.261719 422.027344 131.433594 C 417.746094 129.609375 413.449219 127.898438 409.128906 126.300781 C 404.808594 124.707031 400.476562 123.230469 396.128906 121.867188 C 391.777344 120.507812 387.417969 119.265625 383.050781 118.144531 C 378.683594 117.019531 374.308594 116.015625 369.929688 115.132812 C 365.554688 114.25 361.175781 113.492188 356.800781 112.851562 C 352.425781 112.210938 348.054688 111.691406 343.691406 111.296875 C 339.328125 110.902344 334.972656 110.628906 330.632812 110.476562 C 326.292969 110.328125 321.96875 110.296875 317.660156 110.394531 C 313.351562 110.488281 309.066406 110.707031 304.800781 111.046875 C 300.535156 111.386719 296.296875 111.847656 292.085938 112.433594 C 287.875 113.015625 283.699219 113.722656 279.550781 114.550781 C 275.402344 115.378906 271.292969 116.324219 267.222656 117.394531 C 263.148438 118.460938 259.117188 119.648438 255.128906 120.957031 C 251.136719 122.261719 247.195312 123.6875 243.300781 125.230469 C 239.402344 126.773438 235.558594 128.429688 231.765625 130.203125 Z M 231.765625 130.203125 " fill-opacity="1" fill-rule="nonzero"/><path fill="#d2edff" d="M 278.351562 108.425781 C 274.558594 110.199219 270.820312 112.085938 267.140625 114.085938 C 263.457031 116.089844 259.835938 118.199219 256.277344 120.421875 C 252.714844 122.648438 249.21875 124.980469 245.789062 127.417969 C 242.355469 129.859375 238.992188 132.40625 235.699219 135.058594 C 232.40625 137.710938 229.183594 140.464844 226.035156 143.320312 C 222.886719 146.175781 219.816406 149.132812 216.820312 152.1875 C 213.824219 155.242188 210.910156 158.390625 208.074219 161.636719 C 205.242188 164.882812 202.488281 168.21875 199.820312 171.648438 C 197.152344 175.074219 194.574219 178.589844 192.078125 182.191406 C 189.582031 185.796875 187.179688 189.480469 184.863281 193.25 C 182.550781 197.019531 180.328125 200.863281 178.199219 204.789062 C 176.066406 208.714844 174.035156 212.714844 172.09375 216.785156 C 170.15625 220.859375 168.3125 225 166.570312 229.210938 C 164.824219 233.421875 163.179688 237.695312 161.632812 242.03125 C 160.089844 246.367188 158.644531 250.765625 157.304688 255.21875 C 155.960938 259.671875 154.722656 264.179688 153.585938 268.742188 C 152.449219 273.300781 151.417969 277.910156 150.488281 282.566406 C 149.5625 287.222656 148.738281 291.917969 148.023438 296.65625 C 147.308594 301.398438 146.699219 306.171875 146.195312 310.984375 C 145.691406 315.796875 145.292969 320.640625 145.003906 325.515625 C 144.714844 330.386719 144.53125 335.285156 144.457031 340.207031 C 144.382812 345.128906 144.414062 350.070312 144.554688 355.03125 C 144.695312 359.992188 144.941406 364.964844 145.296875 369.949219 C 145.652344 374.933594 146.113281 379.925781 146.683594 384.925781 C 147.25 389.921875 147.925781 394.921875 148.707031 399.921875 C 149.484375 404.921875 150.371094 409.917969 151.363281 414.90625 C 152.355469 419.894531 153.449219 424.875 154.648438 429.839844 C 155.847656 434.808594 157.148438 439.757812 158.554688 444.6875 C 159.957031 449.621094 161.460938 454.527344 163.070312 459.414062 C 164.675781 464.300781 166.378906 469.15625 168.183594 473.984375 C 169.988281 478.8125 171.886719 483.601562 173.886719 488.359375 C 175.882812 493.117188 177.976562 497.832031 180.160156 502.507812 C 182.347656 507.183594 184.625 511.816406 186.996094 516.398438 C 189.367188 520.980469 191.824219 525.511719 194.371094 529.992188 C 196.921875 534.472656 199.554688 538.894531 202.273438 543.257812 C 204.992188 547.625 207.792969 551.925781 210.679688 556.167969 C 213.5625 560.40625 216.527344 564.578125 219.570312 568.683594 C 222.609375 572.789062 225.730469 576.820312 228.921875 580.78125 C 232.117188 584.738281 235.378906 588.621094 238.71875 592.425781 C 242.054688 596.230469 245.457031 599.953125 248.929688 603.59375 C 252.398438 607.238281 255.933594 610.792969 259.535156 614.261719 C 263.132812 617.730469 266.789062 621.105469 270.503906 624.394531 C 274.222656 627.683594 277.992188 630.875 281.816406 633.972656 C 285.644531 637.074219 289.519531 640.074219 293.445312 642.976562 C 297.371094 645.878906 301.339844 648.679688 305.355469 651.378906 C 309.371094 654.078125 313.425781 656.671875 317.523438 659.160156 C 321.621094 661.648438 325.753906 664.03125 329.917969 666.304688 C 334.085938 668.578125 338.285156 670.742188 342.511719 672.792969 C 346.742188 674.84375 350.996094 676.785156 355.273438 678.609375 C 359.550781 680.4375 363.851562 682.144531 368.171875 683.742188 C 372.488281 685.335938 376.824219 686.816406 381.171875 688.175781 C 385.523438 689.535156 389.882812 690.777344 394.25 691.902344 C 398.617188 693.023438 402.992188 694.027344 407.371094 694.910156 C 411.746094 695.792969 416.125 696.554688 420.5 697.191406 C 424.875 697.832031 429.246094 698.351562 433.609375 698.746094 C 437.972656 699.140625 442.324219 699.414062 446.667969 699.566406 C 451.007812 699.71875 455.332031 699.746094 459.640625 699.648438 C 463.949219 699.554688 468.234375 699.339844 472.5 699 C 476.765625 698.660156 481.003906 698.195312 485.214844 697.613281 C 489.425781 697.027344 493.601562 696.320312 497.75 695.492188 C 501.898438 694.667969 506.007812 693.71875 510.078125 692.652344 C 514.152344 691.582031 518.183594 690.394531 522.171875 689.085938 C 526.164062 687.78125 530.105469 686.355469 534 684.8125 C 537.898438 683.273438 541.742188 681.613281 545.535156 679.839844 C 549.328125 678.066406 553.066406 676.179688 556.746094 674.179688 C 560.429688 672.175781 564.050781 670.066406 567.609375 667.84375 C 571.171875 665.617188 574.667969 663.285156 578.097656 660.847656 C 581.53125 658.40625 584.890625 655.859375 588.1875 653.207031 C 591.480469 650.554688 594.703125 647.800781 597.847656 644.945312 C 600.996094 642.089844 604.070312 639.132812 607.066406 636.078125 C 610.058594 633.023438 612.976562 629.875 615.808594 626.628906 C 618.644531 623.382812 621.398438 620.046875 624.066406 616.617188 C 626.734375 613.191406 629.3125 609.675781 631.808594 606.074219 C 634.300781 602.46875 636.707031 598.785156 639.019531 595.015625 C 641.335938 591.246094 643.558594 587.402344 645.6875 583.476562 C 647.816406 579.550781 649.851562 575.550781 651.792969 571.480469 C 653.730469 567.40625 655.574219 563.265625 657.316406 559.054688 C 659.0625 554.84375 660.707031 550.570312 662.25 546.234375 C 663.796875 541.898438 665.242188 537.5 666.582031 533.046875 C 667.925781 528.59375 669.164062 524.085938 670.300781 519.523438 C 671.4375 514.964844 672.46875 510.355469 673.394531 505.699219 C 674.324219 501.042969 675.144531 496.347656 675.863281 491.609375 C 676.578125 486.867188 677.1875 482.09375 677.691406 477.28125 C 678.195312 472.46875 678.59375 467.625 678.882812 462.75 C 679.171875 457.878906 679.351562 452.980469 679.429688 448.058594 C 679.503906 443.136719 679.46875 438.195312 679.332031 433.234375 C 679.191406 428.273438 678.941406 423.300781 678.589844 418.316406 C 678.234375 413.332031 677.773438 408.339844 677.203125 403.339844 C 676.636719 398.34375 675.960938 393.34375 675.179688 388.34375 C 674.398438 383.34375 673.515625 378.347656 672.523438 373.359375 C 671.53125 368.371094 670.4375 363.390625 669.238281 358.425781 C 668.039062 353.457031 666.738281 348.507812 665.332031 343.578125 C 663.929688 338.644531 662.421875 333.738281 660.816406 328.851562 C 659.210938 323.964844 657.507812 319.109375 655.703125 314.28125 C 653.898438 309.453125 651.996094 304.664062 650 299.90625 C 648.003906 295.148438 645.910156 290.433594 643.722656 285.757812 C 641.539062 281.082031 639.257812 276.449219 636.890625 271.867188 C 634.519531 267.285156 632.0625 262.753906 629.511719 258.273438 C 626.964844 253.792969 624.332031 249.371094 621.613281 245.007812 C 618.894531 240.640625 616.09375 236.339844 613.207031 232.097656 C 610.324219 227.859375 607.359375 223.6875 604.316406 219.582031 C 601.273438 215.476562 598.15625 211.445312 594.964844 207.484375 C 591.769531 203.527344 588.503906 199.644531 585.167969 195.839844 C 581.832031 192.035156 578.429688 188.3125 574.957031 184.671875 C 571.484375 181.027344 567.949219 177.472656 564.351562 174.003906 C 560.753906 170.535156 557.097656 167.160156 553.378906 163.871094 C 549.664062 160.582031 545.894531 157.390625 542.066406 154.292969 C 538.242188 151.191406 534.367188 148.191406 530.441406 145.289062 C 526.515625 142.386719 522.546875 139.585938 518.53125 136.886719 C 514.515625 134.1875 510.457031 131.59375 506.363281 129.105469 C 502.265625 126.617188 498.132812 124.234375 493.964844 121.960938 C 489.800781 119.6875 485.601562 117.523438 481.371094 115.472656 C 477.144531 113.421875 472.890625 111.480469 468.613281 109.65625 C 464.332031 107.828125 460.035156 106.121094 455.714844 104.523438 C 451.394531 102.929688 447.0625 101.449219 442.710938 100.089844 C 438.363281 98.730469 434.003906 97.488281 429.636719 96.363281 C 425.265625 95.242188 420.894531 94.238281 416.515625 93.355469 C 412.140625 92.472656 407.761719 91.710938 403.386719 91.074219 C 399.011719 90.433594 394.640625 89.914062 390.277344 89.519531 C 385.914062 89.125 381.558594 88.851562 377.21875 88.699219 C 372.878906 88.546875 368.554688 88.519531 364.246094 88.617188 C 359.9375 88.710938 355.648438 88.925781 351.386719 89.265625 C 347.121094 89.609375 342.882812 90.070312 338.671875 90.652344 C 334.460938 91.238281 330.28125 91.945312 326.136719 92.773438 C 321.988281 93.597656 317.878906 94.546875 313.804688 95.617188 C 309.734375 96.683594 305.703125 97.871094 301.710938 99.179688 C 297.722656 100.484375 293.78125 101.910156 289.882812 103.453125 C 285.988281 104.992188 282.144531 106.652344 278.351562 108.425781 Z M 278.351562 108.425781 " fill-opacity="1" fill-rule="nonzero"/><path fill="#1c486f" d="M 308.613281 173.148438 C 305.679688 174.519531 302.789062 175.980469 299.941406 177.527344 C 297.09375 179.078125 294.292969 180.710938 291.539062 182.429688 C 288.785156 184.148438 286.082031 185.953125 283.425781 187.839844 C 280.773438 189.730469 278.171875 191.699219 275.625 193.75 C 273.078125 195.800781 270.585938 197.929688 268.152344 200.140625 C 265.714844 202.351562 263.339844 204.636719 261.023438 207 C 258.707031 209.363281 256.449219 211.796875 254.257812 214.308594 C 252.066406 216.816406 249.9375 219.398438 247.875 222.050781 C 245.808594 224.703125 243.8125 227.421875 241.882812 230.207031 C 239.957031 232.992188 238.09375 235.84375 236.304688 238.757812 C 234.515625 241.671875 232.796875 244.648438 231.148438 247.683594 C 229.5 250.722656 227.925781 253.8125 226.425781 256.964844 C 224.925781 260.113281 223.503906 263.316406 222.152344 266.574219 C 220.804688 269.828125 219.53125 273.136719 218.335938 276.488281 C 217.140625 279.84375 216.023438 283.246094 214.988281 286.691406 C 213.949219 290.136719 212.988281 293.621094 212.109375 297.148438 C 211.230469 300.675781 210.433594 304.242188 209.714844 307.839844 C 209 311.441406 208.363281 315.074219 207.808594 318.742188 C 207.253906 322.40625 206.78125 326.101562 206.394531 329.824219 C 206.003906 333.546875 205.695312 337.292969 205.472656 341.0625 C 205.25 344.828125 205.109375 348.617188 205.050781 352.425781 C 204.992188 356.234375 205.015625 360.054688 205.125 363.890625 C 205.234375 367.726562 205.425781 371.574219 205.699219 375.429688 C 205.972656 379.285156 206.332031 383.144531 206.769531 387.011719 C 207.210938 390.878906 207.730469 394.746094 208.335938 398.613281 C 208.9375 402.480469 209.625 406.34375 210.390625 410.203125 C 211.15625 414.0625 212.003906 417.910156 212.929688 421.753906 C 213.859375 425.59375 214.867188 429.421875 215.953125 433.238281 C 217.039062 437.050781 218.203125 440.847656 219.445312 444.628906 C 220.6875 448.40625 222.003906 452.164062 223.402344 455.894531 C 224.796875 459.628906 226.265625 463.335938 227.8125 467.015625 C 229.355469 470.695312 230.972656 474.34375 232.664062 477.960938 C 234.355469 481.578125 236.117188 485.15625 237.953125 488.703125 C 239.785156 492.246094 241.6875 495.75 243.65625 499.214844 C 245.628906 502.679688 247.664062 506.101562 249.765625 509.476562 C 251.871094 512.855469 254.039062 516.179688 256.269531 519.460938 C 258.5 522.742188 260.792969 525.96875 263.144531 529.140625 C 265.5 532.316406 267.910156 535.4375 270.378906 538.5 C 272.847656 541.5625 275.375 544.5625 277.957031 547.507812 C 280.535156 550.449219 283.167969 553.328125 285.855469 556.144531 C 288.539062 558.960938 291.273438 561.710938 294.054688 564.394531 C 296.839844 567.078125 299.667969 569.691406 302.542969 572.234375 C 305.417969 574.777344 308.332031 577.246094 311.292969 579.640625 C 314.25 582.039062 317.25 584.359375 320.285156 586.605469 C 323.320312 588.847656 326.390625 591.015625 329.5 593.101562 C 332.605469 595.191406 335.742188 597.195312 338.910156 599.121094 C 342.078125 601.046875 345.273438 602.890625 348.496094 604.648438 C 351.722656 606.40625 354.96875 608.078125 358.238281 609.667969 C 361.507812 611.253906 364.800781 612.753906 368.109375 614.164062 C 371.417969 615.578125 374.742188 616.902344 378.085938 618.132812 C 381.425781 619.367188 384.777344 620.511719 388.140625 621.5625 C 391.503906 622.617188 394.875 623.578125 398.253906 624.445312 C 401.636719 625.3125 405.015625 626.089844 408.402344 626.773438 C 411.789062 627.453125 415.175781 628.042969 418.558594 628.539062 C 421.945312 629.035156 425.324219 629.433594 428.699219 629.738281 C 432.074219 630.046875 435.441406 630.257812 438.800781 630.375 C 442.15625 630.492188 445.5 630.511719 448.835938 630.4375 C 452.167969 630.367188 455.480469 630.199219 458.78125 629.933594 C 462.078125 629.671875 465.355469 629.3125 468.613281 628.863281 C 471.871094 628.410156 475.101562 627.863281 478.308594 627.222656 C 481.519531 626.582031 484.695312 625.851562 487.847656 625.023438 C 490.996094 624.199219 494.117188 623.28125 497.199219 622.269531 C 500.285156 621.257812 503.335938 620.15625 506.351562 618.964844 C 509.363281 617.769531 512.335938 616.488281 515.269531 615.117188 C 518.203125 613.746094 521.097656 612.285156 523.941406 610.738281 C 526.789062 609.1875 529.589844 607.554688 532.34375 605.835938 C 535.101562 604.117188 537.804688 602.3125 540.457031 600.425781 C 543.113281 598.535156 545.714844 596.566406 548.261719 594.515625 C 550.808594 592.464844 553.300781 590.335938 555.734375 588.125 C 558.171875 585.914062 560.546875 583.628906 562.863281 581.265625 C 565.179688 578.902344 567.433594 576.46875 569.628906 573.957031 C 571.820312 571.449219 573.949219 568.867188 576.011719 566.214844 C 578.074219 563.5625 580.070312 560.84375 582 558.058594 C 583.929688 555.273438 585.789062 552.421875 587.582031 549.507812 C 589.371094 546.59375 591.089844 543.617188 592.738281 540.582031 C 594.382812 537.542969 595.957031 534.453125 597.457031 531.300781 C 598.957031 528.152344 600.382812 524.949219 601.730469 521.691406 C 603.082031 518.4375 604.355469 515.128906 605.550781 511.777344 C 606.746094 508.421875 607.859375 505.019531 608.898438 501.574219 C 609.9375 498.128906 610.894531 494.644531 611.773438 491.117188 C 612.652344 487.589844 613.453125 484.023438 614.167969 480.425781 C 614.886719 476.824219 615.523438 473.191406 616.078125 469.523438 C 616.632812 465.859375 617.101562 462.164062 617.492188 458.441406 C 617.882812 454.71875 618.1875 450.972656 618.414062 447.203125 C 618.636719 443.4375 618.777344 439.648438 618.835938 435.839844 C 618.894531 432.03125 618.867188 428.210938 618.761719 424.375 C 618.652344 420.539062 618.460938 416.691406 618.1875 412.835938 C 617.910156 408.980469 617.554688 405.121094 617.117188 401.253906 C 616.675781 397.386719 616.15625 393.519531 615.550781 389.652344 C 614.945312 385.785156 614.261719 381.921875 613.496094 378.0625 C 612.730469 374.203125 611.882812 370.355469 610.953125 366.511719 C 610.027344 362.671875 609.019531 358.84375 607.933594 355.027344 C 606.847656 351.214844 605.683594 347.417969 604.441406 343.636719 C 603.199219 339.859375 601.878906 336.101562 600.484375 332.371094 C 599.089844 328.636719 597.621094 324.929688 596.074219 321.25 C 594.53125 317.570312 592.910156 313.921875 591.21875 310.304688 C 589.53125 306.6875 587.765625 303.109375 585.933594 299.5625 C 584.101562 296.019531 582.199219 292.515625 580.230469 289.050781 C 578.257812 285.585938 576.222656 282.164062 574.117188 278.789062 C 572.015625 275.410156 569.847656 272.085938 567.617188 268.804688 C 565.386719 265.523438 563.09375 262.296875 560.742188 259.125 C 558.386719 255.949219 555.976562 252.828125 553.507812 249.765625 C 551.035156 246.703125 548.511719 243.703125 545.929688 240.757812 C 543.351562 237.816406 540.71875 234.9375 538.03125 232.121094 C 535.347656 229.304688 532.613281 226.554688 529.828125 223.871094 C 527.046875 221.1875 524.21875 218.574219 521.34375 216.03125 C 518.46875 213.492188 515.550781 211.019531 512.59375 208.625 C 509.632812 206.226562 506.636719 203.90625 503.601562 201.660156 C 500.566406 199.417969 497.492188 197.25 494.386719 195.164062 C 491.28125 193.074219 488.144531 191.070312 484.976562 189.144531 C 481.808594 187.21875 478.609375 185.375 475.386719 183.617188 C 472.164062 181.859375 468.917969 180.1875 465.648438 178.597656 C 462.375 177.011719 459.085938 175.511719 455.777344 174.101562 C 452.46875 172.6875 449.140625 171.363281 445.800781 170.132812 C 442.460938 168.898438 439.109375 167.753906 435.746094 166.703125 C 432.378906 165.648438 429.007812 164.6875 425.628906 163.820312 C 422.25 162.953125 418.867188 162.175781 415.484375 161.492188 C 412.097656 160.8125 408.710938 160.222656 405.328125 159.726562 C 401.941406 159.230469 398.5625 158.832031 395.1875 158.527344 C 391.8125 158.21875 388.445312 158.007812 385.085938 157.890625 C 381.730469 157.773438 378.382812 157.753906 375.050781 157.828125 C 371.71875 157.898438 368.402344 158.066406 365.105469 158.332031 C 361.808594 158.59375 358.53125 158.953125 355.273438 159.402344 C 352.015625 159.855469 348.78125 160.402344 345.574219 161.042969 C 342.367188 161.683594 339.1875 162.414062 336.039062 163.242188 C 332.886719 164.066406 329.769531 164.984375 326.683594 165.996094 C 323.597656 167.007812 320.550781 168.109375 317.535156 169.300781 C 314.523438 170.496094 311.546875 171.777344 308.613281 173.148438 Z M 308.613281 173.148438 " fill-opacity="1" fill-rule="nonzero"/><path fill="#d2edff" d="M 342.148438 244.867188 C 340.167969 245.792969 338.214844 246.78125 336.292969 247.824219 C 334.367188 248.871094 332.476562 249.976562 330.617188 251.136719 C 328.753906 252.296875 326.929688 253.515625 325.136719 254.792969 C 323.34375 256.066406 321.585938 257.398438 319.867188 258.78125 C 318.144531 260.167969 316.460938 261.605469 314.816406 263.097656 C 313.171875 264.589844 311.566406 266.136719 310.003906 267.730469 C 308.4375 269.328125 306.914062 270.972656 305.433594 272.667969 C 303.953125 274.363281 302.515625 276.105469 301.121094 277.898438 C 299.726562 279.6875 298.378906 281.527344 297.078125 283.40625 C 295.773438 285.289062 294.515625 287.214844 293.308594 289.183594 C 292.097656 291.152344 290.9375 293.164062 289.824219 295.214844 C 288.710938 297.265625 287.648438 299.351562 286.636719 301.480469 C 285.621094 303.609375 284.660156 305.773438 283.75 307.972656 C 282.835938 310.171875 281.976562 312.402344 281.171875 314.667969 C 280.363281 316.933594 279.609375 319.230469 278.90625 321.558594 C 278.207031 323.886719 277.558594 326.242188 276.964844 328.625 C 276.371094 331.007812 275.832031 333.414062 275.347656 335.847656 C 274.863281 338.277344 274.433594 340.734375 274.058594 343.207031 C 273.6875 345.683594 273.367188 348.179688 273.105469 350.695312 C 272.839844 353.207031 272.632812 355.738281 272.484375 358.285156 C 272.332031 360.832031 272.234375 363.390625 272.195312 365.960938 C 272.15625 368.53125 272.175781 371.113281 272.246094 373.707031 C 272.320312 376.296875 272.449219 378.894531 272.636719 381.5 C 272.820312 384.101562 273.0625 386.710938 273.359375 389.324219 C 273.65625 391.933594 274.007812 394.546875 274.414062 397.15625 C 274.824219 399.769531 275.285156 402.378906 275.804688 404.988281 C 276.320312 407.59375 276.894531 410.195312 277.519531 412.789062 C 278.148438 415.382812 278.828125 417.96875 279.5625 420.546875 C 280.292969 423.121094 281.082031 425.6875 281.917969 428.238281 C 282.757812 430.792969 283.648438 433.328125 284.59375 435.851562 C 285.535156 438.371094 286.527344 440.875 287.570312 443.363281 C 288.613281 445.847656 289.707031 448.3125 290.851562 450.753906 C 291.992188 453.195312 293.183594 455.617188 294.421875 458.007812 C 295.660156 460.402344 296.941406 462.773438 298.273438 465.113281 C 299.605469 467.453125 300.980469 469.761719 302.402344 472.042969 C 303.820312 474.324219 305.285156 476.570312 306.792969 478.785156 C 308.300781 481 309.847656 483.179688 311.4375 485.324219 C 313.027344 487.46875 314.65625 489.578125 316.324219 491.644531 C 317.992188 493.714844 319.699219 495.742188 321.441406 497.730469 C 323.183594 499.71875 324.960938 501.664062 326.777344 503.566406 C 328.589844 505.46875 330.4375 507.324219 332.316406 509.136719 C 334.195312 510.949219 336.109375 512.714844 338.050781 514.429688 C 339.992188 516.148438 341.960938 517.816406 343.960938 519.4375 C 345.957031 521.054688 347.984375 522.621094 350.03125 524.136719 C 352.082031 525.65625 354.160156 527.117188 356.257812 528.527344 C 358.355469 529.9375 360.472656 531.292969 362.613281 532.59375 C 364.753906 533.894531 366.914062 535.140625 369.089844 536.328125 C 371.265625 537.515625 373.460938 538.644531 375.667969 539.714844 C 377.878906 540.789062 380.101562 541.800781 382.335938 542.753906 C 384.570312 543.710938 386.816406 544.601562 389.074219 545.4375 C 391.332031 546.269531 393.59375 547.042969 395.867188 547.753906 C 398.140625 548.464844 400.417969 549.113281 402.699219 549.699219 C 404.980469 550.285156 407.265625 550.808594 409.554688 551.269531 C 411.839844 551.730469 414.125 552.128906 416.414062 552.464844 C 418.699219 552.796875 420.980469 553.070312 423.261719 553.273438 C 425.542969 553.480469 427.816406 553.625 430.082031 553.703125 C 432.351562 553.78125 434.609375 553.796875 436.863281 553.746094 C 439.113281 553.699219 441.351562 553.585938 443.578125 553.40625 C 445.808594 553.230469 448.023438 552.988281 450.222656 552.683594 C 452.421875 552.378906 454.605469 552.007812 456.773438 551.574219 C 458.9375 551.144531 461.085938 550.648438 463.214844 550.089844 C 465.339844 549.53125 467.445312 548.910156 469.53125 548.230469 C 471.617188 547.546875 473.675781 546.800781 475.710938 545.996094 C 477.746094 545.191406 479.753906 544.324219 481.738281 543.398438 C 483.71875 542.472656 485.671875 541.484375 487.59375 540.441406 C 489.519531 539.394531 491.410156 538.289062 493.269531 537.128906 C 495.128906 535.96875 496.957031 534.75 498.75 533.472656 C 500.542969 532.199219 502.300781 530.867188 504.019531 529.484375 C 505.742188 528.097656 507.421875 526.660156 509.066406 525.167969 C 510.714844 523.675781 512.316406 522.128906 513.882812 520.535156 C 515.449219 518.9375 516.96875 517.292969 518.453125 515.597656 C 519.933594 513.902344 521.371094 512.160156 522.765625 510.367188 C 524.15625 508.578125 525.507812 506.742188 526.808594 504.859375 C 528.113281 502.976562 529.367188 501.050781 530.578125 499.082031 C 531.789062 497.113281 532.949219 495.101562 534.0625 493.050781 C 535.175781 491.003906 536.238281 488.914062 537.25 486.785156 C 538.261719 484.65625 539.226562 482.492188 540.136719 480.292969 C 541.046875 478.09375 541.90625 475.863281 542.714844 473.597656 C 543.523438 471.332031 544.277344 469.035156 544.976562 466.707031 C 545.679688 464.378906 546.328125 462.023438 546.921875 459.640625 C 547.515625 457.257812 548.054688 454.851562 548.539062 452.417969 C 549.023438 449.988281 549.453125 447.53125 549.824219 445.058594 C 550.199219 442.582031 550.519531 440.085938 550.78125 437.570312 C 551.042969 435.058594 551.253906 432.527344 551.402344 429.980469 C 551.554688 427.433594 551.648438 424.875 551.6875 422.304688 C 551.726562 419.734375 551.710938 417.152344 551.636719 414.5625 C 551.566406 411.96875 551.4375 409.371094 551.25 406.765625 C 551.066406 404.164062 550.824219 401.554688 550.527344 398.941406 C 550.230469 396.332031 549.878906 393.71875 549.46875 391.109375 C 549.0625 388.496094 548.597656 385.886719 548.082031 383.277344 C 547.5625 380.671875 546.992188 378.070312 546.367188 375.476562 C 545.738281 372.882812 545.058594 370.296875 544.324219 367.71875 C 543.589844 365.144531 542.804688 362.578125 541.964844 360.027344 C 541.128906 357.472656 540.234375 354.9375 539.292969 352.414062 C 538.351562 349.894531 537.359375 347.390625 536.316406 344.902344 C 535.269531 342.417969 534.179688 339.953125 533.035156 337.511719 C 531.894531 335.070312 530.703125 332.648438 529.464844 330.257812 C 528.226562 327.863281 526.941406 325.496094 525.613281 323.152344 C 524.28125 320.8125 522.90625 318.503906 521.484375 316.222656 C 520.0625 313.941406 518.601562 311.695312 517.09375 309.480469 C 515.585938 307.265625 514.039062 305.085938 512.449219 302.941406 C 510.859375 300.796875 509.230469 298.6875 507.5625 296.621094 C 505.894531 294.550781 504.1875 292.523438 502.445312 290.535156 C 500.703125 288.546875 498.921875 286.601562 497.109375 284.699219 C 495.296875 282.796875 493.449219 280.941406 491.570312 279.128906 C 489.6875 277.316406 487.777344 275.550781 485.835938 273.835938 C 483.894531 272.117188 481.925781 270.449219 479.925781 268.828125 C 477.929688 267.210938 475.902344 265.644531 473.851562 264.128906 C 471.800781 262.609375 469.726562 261.148438 467.628906 259.738281 C 465.53125 258.328125 463.414062 256.972656 461.273438 255.671875 C 459.132812 254.371094 456.972656 253.125 454.796875 251.9375 C 452.617188 250.75 450.425781 249.621094 448.21875 248.550781 C 446.007812 247.476562 443.785156 246.464844 441.550781 245.511719 C 439.316406 244.554688 437.070312 243.664062 434.8125 242.828125 C 432.554688 241.996094 430.292969 241.222656 428.019531 240.511719 C 425.746094 239.800781 423.46875 239.152344 421.1875 238.566406 C 418.90625 237.980469 416.621094 237.457031 414.332031 236.996094 C 412.046875 236.535156 409.757812 236.136719 407.472656 235.800781 C 405.1875 235.46875 402.902344 235.195312 400.625 234.992188 C 398.34375 234.785156 396.070312 234.640625 393.800781 234.5625 C 391.535156 234.484375 389.273438 234.46875 387.023438 234.519531 C 384.773438 234.566406 382.535156 234.679688 380.304688 234.859375 C 378.078125 235.035156 375.863281 235.277344 373.664062 235.582031 C 371.464844 235.890625 369.28125 236.257812 367.113281 236.691406 C 364.949219 237.121094 362.800781 237.617188 360.671875 238.175781 C 358.542969 238.734375 356.4375 239.355469 354.355469 240.035156 C 352.269531 240.71875 350.210938 241.464844 348.175781 242.269531 C 346.140625 243.074219 344.132812 243.941406 342.148438 244.867188 Z M 342.148438 244.867188 " fill-opacity="1" fill-rule="nonzero"/><path fill="#1c486f" d="M 380.589844 327.078125 C 379.699219 327.492188 378.820312 327.9375 377.957031 328.40625 C 377.09375 328.875 376.242188 329.371094 375.410156 329.894531 C 374.574219 330.414062 373.753906 330.960938 372.945312 331.535156 C 372.140625 332.109375 371.351562 332.703125 370.578125 333.328125 C 369.808594 333.949219 369.050781 334.597656 368.3125 335.265625 C 367.574219 335.9375 366.851562 336.628906 366.148438 337.347656 C 365.445312 338.0625 364.761719 338.804688 364.097656 339.566406 C 363.433594 340.328125 362.785156 341.109375 362.160156 341.914062 C 361.535156 342.71875 360.929688 343.542969 360.34375 344.390625 C 359.757812 345.234375 359.195312 346.101562 358.648438 346.984375 C 358.105469 347.867188 357.585938 348.769531 357.085938 349.691406 C 356.585938 350.613281 356.109375 351.550781 355.652344 352.507812 C 355.199219 353.464844 354.765625 354.4375 354.355469 355.421875 C 353.949219 356.410156 353.5625 357.414062 353.199219 358.433594 C 352.835938 359.449219 352.496094 360.480469 352.183594 361.527344 C 351.867188 362.574219 351.578125 363.632812 351.308594 364.703125 C 351.042969 365.773438 350.800781 366.851562 350.585938 367.945312 C 350.367188 369.039062 350.171875 370.140625 350.003906 371.253906 C 349.835938 372.367188 349.695312 373.488281 349.578125 374.617188 C 349.457031 375.746094 349.367188 376.882812 349.296875 378.027344 C 349.230469 379.167969 349.1875 380.320312 349.167969 381.472656 C 349.152344 382.628906 349.160156 383.789062 349.191406 384.953125 C 349.226562 386.117188 349.285156 387.285156 349.367188 388.453125 C 349.449219 389.625 349.558594 390.796875 349.691406 391.96875 C 349.824219 393.140625 349.984375 394.316406 350.167969 395.488281 C 350.351562 396.664062 350.558594 397.835938 350.789062 399.003906 C 351.023438 400.175781 351.28125 401.34375 351.5625 402.511719 C 351.84375 403.675781 352.148438 404.839844 352.476562 405.996094 C 352.808594 407.152344 353.160156 408.304688 353.539062 409.453125 C 353.914062 410.597656 354.316406 411.738281 354.738281 412.871094 C 355.160156 414.003906 355.609375 415.128906 356.078125 416.246094 C 356.546875 417.363281 357.035156 418.46875 357.550781 419.566406 C 358.0625 420.664062 358.597656 421.75 359.152344 422.824219 C 359.710938 423.902344 360.285156 424.964844 360.886719 426.015625 C 361.484375 427.066406 362.101562 428.105469 362.738281 429.128906 C 363.378906 430.15625 364.035156 431.164062 364.710938 432.160156 C 365.390625 433.15625 366.085938 434.132812 366.796875 435.097656 C 367.511719 436.058594 368.246094 437.007812 368.992188 437.9375 C 369.742188 438.867188 370.507812 439.777344 371.292969 440.667969 C 372.074219 441.5625 372.875 442.4375 373.6875 443.292969 C 374.503906 444.144531 375.332031 444.980469 376.179688 445.792969 C 377.023438 446.609375 377.878906 447.402344 378.753906 448.171875 C 379.625 448.945312 380.511719 449.695312 381.40625 450.421875 C 382.304688 451.148438 383.214844 451.851562 384.136719 452.535156 C 385.058594 453.214844 385.988281 453.871094 386.933594 454.507812 C 387.875 455.140625 388.824219 455.75 389.789062 456.332031 C 390.75 456.917969 391.71875 457.476562 392.695312 458.007812 C 393.675781 458.542969 394.660156 459.050781 395.652344 459.53125 C 396.644531 460.015625 397.640625 460.46875 398.648438 460.898438 C 399.652344 461.328125 400.660156 461.726562 401.671875 462.101562 C 402.6875 462.476562 403.703125 462.824219 404.726562 463.144531 C 405.746094 463.460938 406.769531 463.753906 407.792969 464.019531 C 408.820312 464.28125 409.84375 464.515625 410.871094 464.722656 C 411.898438 464.929688 412.925781 465.109375 413.953125 465.261719 C 414.980469 465.410156 416.007812 465.53125 417.03125 465.625 C 418.054688 465.71875 419.078125 465.78125 420.09375 465.816406 C 421.113281 465.851562 422.128906 465.859375 423.140625 465.835938 C 424.152344 465.816406 425.15625 465.765625 426.15625 465.683594 C 427.160156 465.605469 428.152344 465.496094 429.140625 465.359375 C 430.128906 465.222656 431.109375 465.054688 432.082031 464.863281 C 433.054688 464.667969 434.019531 464.445312 434.976562 464.195312 C 435.933594 463.945312 436.878906 463.664062 437.816406 463.359375 C 438.75 463.050781 439.675781 462.71875 440.589844 462.355469 C 441.503906 461.992188 442.40625 461.605469 443.296875 461.1875 C 444.1875 460.773438 445.0625 460.328125 445.929688 459.859375 C 446.792969 459.390625 447.640625 458.894531 448.476562 458.371094 C 449.3125 457.851562 450.132812 457.304688 450.9375 456.730469 C 451.742188 456.15625 452.53125 455.5625 453.304688 454.9375 C 454.078125 454.316406 454.835938 453.667969 455.574219 453 C 456.3125 452.328125 457.035156 451.636719 457.738281 450.917969 C 458.4375 450.203125 459.125 449.460938 459.789062 448.699219 C 460.453125 447.9375 461.101562 447.15625 461.726562 446.351562 C 462.351562 445.546875 462.957031 444.722656 463.542969 443.875 C 464.128906 443.03125 464.691406 442.164062 465.234375 441.28125 C 465.777344 440.398438 466.300781 439.496094 466.800781 438.574219 C 467.300781 437.652344 467.777344 436.714844 468.230469 435.757812 C 468.6875 434.800781 469.121094 433.828125 469.527344 432.84375 C 469.9375 431.855469 470.324219 430.851562 470.6875 429.832031 C 471.050781 428.816406 471.386719 427.785156 471.703125 426.738281 C 472.019531 425.691406 472.308594 424.632812 472.574219 423.5625 C 472.84375 422.492188 473.085938 421.414062 473.300781 420.320312 C 473.519531 419.226562 473.710938 418.125 473.878906 417.011719 C 474.046875 415.898438 474.191406 414.777344 474.308594 413.648438 C 474.425781 412.519531 474.519531 411.382812 474.589844 410.238281 C 474.65625 409.097656 474.699219 407.945312 474.714844 406.792969 C 474.734375 405.636719 474.726562 404.476562 474.695312 403.3125 C 474.660156 402.148438 474.601562 400.980469 474.519531 399.8125 C 474.4375 398.640625 474.328125 397.46875 474.195312 396.296875 C 474.0625 395.125 473.902344 393.949219 473.71875 392.777344 C 473.535156 391.601562 473.328125 390.429688 473.09375 389.261719 C 472.863281 388.089844 472.605469 386.921875 472.324219 385.753906 C 472.042969 384.589844 471.738281 383.425781 471.40625 382.269531 C 471.078125 381.113281 470.726562 379.960938 470.347656 378.8125 C 469.972656 377.667969 469.570312 376.527344 469.148438 375.394531 C 468.722656 374.261719 468.277344 373.136719 467.808594 372.019531 C 467.339844 370.902344 466.847656 369.796875 466.335938 368.699219 C 465.824219 367.601562 465.289062 366.515625 464.730469 365.441406 C 464.175781 364.363281 463.597656 363.300781 463 362.25 C 462.402344 361.199219 461.785156 360.160156 461.148438 359.136719 C 460.507812 358.109375 459.851562 357.101562 459.175781 356.105469 C 458.496094 355.109375 457.800781 354.132812 457.085938 353.167969 C 456.375 352.207031 455.640625 351.257812 454.890625 350.328125 C 454.144531 349.398438 453.375 348.488281 452.59375 347.597656 C 451.808594 346.703125 451.011719 345.828125 450.195312 344.972656 C 449.382812 344.121094 448.550781 343.285156 447.707031 342.472656 C 446.863281 341.65625 446.003906 340.863281 445.132812 340.09375 C 444.261719 339.320312 443.375 338.570312 442.476562 337.84375 C 441.582031 337.117188 440.671875 336.414062 439.75 335.730469 C 438.828125 335.050781 437.898438 334.394531 436.953125 333.757812 C 436.011719 333.125 435.058594 332.515625 434.097656 331.933594 C 433.136719 331.347656 432.167969 330.789062 431.1875 330.257812 C 430.210938 329.722656 429.226562 329.214844 428.234375 328.734375 C 427.242188 328.25 426.242188 327.796875 425.238281 327.367188 C 424.234375 326.9375 423.226562 326.539062 422.210938 326.164062 C 421.199219 325.789062 420.179688 325.441406 419.160156 325.121094 C 418.140625 324.804688 417.117188 324.511719 416.09375 324.25 C 415.066406 323.984375 414.039062 323.75 413.011719 323.542969 C 411.984375 323.335938 410.957031 323.15625 409.933594 323.003906 C 408.90625 322.855469 407.878906 322.734375 406.855469 322.640625 C 405.832031 322.546875 404.808594 322.484375 403.789062 322.449219 C 402.773438 322.414062 401.757812 322.40625 400.746094 322.429688 C 399.734375 322.449219 398.730469 322.5 397.726562 322.582031 C 396.726562 322.660156 395.734375 322.769531 394.746094 322.90625 C 393.757812 323.042969 392.777344 323.210938 391.804688 323.402344 C 390.828125 323.597656 389.863281 323.820312 388.910156 324.070312 C 387.953125 324.320312 387.007812 324.601562 386.070312 324.90625 C 385.136719 325.214844 384.210938 325.546875 383.296875 325.910156 C 382.382812 326.273438 381.480469 326.660156 380.589844 327.078125 Z M 380.589844 327.078125 " fill-opacity="1" fill-rule="nonzero"/><path fill="#8282db" d="M 588.265625 275.453125 C 588.265625 275.453125 634.695312 123.222656 681.847656 99.949219 C 728.996094 76.679688 713.691406 216.777344 713.691406 216.777344 Z M 588.265625 275.453125 " fill-opacity="1" fill-rule="nonzero"/><path fill="#8282db" d="M 613.121094 322.375 C 613.121094 322.375 751.660156 363.265625 770.648438 327.144531 C 789.640625 291.019531 741.1875 275.453125 741.1875 275.453125 Z M 613.121094 322.375 " fill-opacity="1" fill-rule="nonzero"/><path fill="#1c486f" d="M 682.621094 234.914062 C 683.066406 234.914062 683.5 234.832031 683.921875 234.671875 C 684.339844 234.507812 684.714844 234.273438 685.042969 233.96875 C 685.375 233.667969 685.640625 233.3125 685.839844 232.910156 C 686.039062 232.507812 686.15625 232.082031 686.195312 231.636719 L 694.621094 137.011719 C 694.632812 136.550781 694.5625 136.105469 694.40625 135.671875 C 694.25 135.242188 694.019531 134.855469 693.710938 134.511719 C 693.40625 134.167969 693.050781 133.890625 692.640625 133.683594 C 692.230469 133.476562 691.796875 133.355469 691.335938 133.3125 C 690.878906 133.273438 690.429688 133.316406 689.992188 133.449219 C 689.550781 133.582031 689.148438 133.789062 688.789062 134.074219 C 688.425781 134.355469 688.132812 134.699219 687.902344 135.09375 C 687.671875 135.492188 687.523438 135.917969 687.453125 136.375 L 679.03125 231 C 678.988281 231.472656 679.039062 231.9375 679.183594 232.394531 C 679.324219 232.847656 679.550781 233.257812 679.855469 233.625 C 680.160156 233.988281 680.527344 234.285156 680.949219 234.503906 C 681.371094 234.726562 681.820312 234.859375 682.292969 234.902344 Z M 682.621094 234.914062 " fill-opacity="1" fill-rule="nonzero"/><path fill="#1c486f" d="M 655.070312 247.796875 C 655.523438 247.796875 655.960938 247.714844 656.386719 247.550781 C 656.808594 247.382812 657.1875 247.144531 657.519531 246.835938 C 657.851562 246.527344 658.117188 246.167969 658.3125 245.757812 C 658.511719 245.347656 658.625 244.917969 658.65625 244.464844 L 662.789062 186.652344 C 662.820312 186.410156 662.824219 186.167969 662.804688 185.925781 C 662.785156 185.679688 662.738281 185.441406 662.671875 185.207031 C 662.601562 184.972656 662.511719 184.75 662.398438 184.535156 C 662.28125 184.316406 662.148438 184.117188 661.992188 183.929688 C 661.835938 183.738281 661.664062 183.570312 661.476562 183.414062 C 661.285156 183.261719 661.082031 183.128906 660.863281 183.019531 C 660.648438 182.90625 660.421875 182.816406 660.1875 182.75 C 659.953125 182.683594 659.714844 182.644531 659.46875 182.625 C 659.226562 182.609375 658.984375 182.617188 658.742188 182.648438 C 658.5 182.679688 658.265625 182.734375 658.035156 182.816406 C 657.800781 182.894531 657.582031 182.996094 657.371094 183.121094 C 657.164062 183.246094 656.96875 183.390625 656.789062 183.554688 C 656.605469 183.71875 656.445312 183.898438 656.300781 184.097656 C 656.15625 184.292969 656.035156 184.503906 655.933594 184.726562 C 655.832031 184.949219 655.753906 185.175781 655.699219 185.414062 C 655.644531 185.652344 655.617188 185.894531 655.609375 186.136719 L 651.546875 243.949219 C 651.515625 244.425781 651.574219 244.886719 651.726562 245.339844 C 651.878906 245.792969 652.109375 246.195312 652.421875 246.558594 C 652.734375 246.917969 653.101562 247.203125 653.527344 247.417969 C 653.953125 247.632812 654.402344 247.757812 654.878906 247.796875 Z M 655.070312 247.796875 " fill-opacity="1" fill-rule="nonzero"/><path fill="#1c486f" d="M 740.023438 319.097656 C 740.460938 319.101562 740.882812 319.027344 741.292969 318.878906 C 741.703125 318.726562 742.074219 318.507812 742.40625 318.222656 C 742.734375 317.9375 743.003906 317.601562 743.214844 317.21875 C 743.421875 316.832031 743.554688 316.425781 743.613281 315.992188 C 743.671875 315.558594 743.65625 315.128906 743.554688 314.703125 C 743.457031 314.277344 743.289062 313.882812 743.046875 313.519531 C 742.804688 313.15625 742.507812 312.847656 742.152344 312.589844 C 741.796875 312.335938 741.40625 312.152344 740.984375 312.039062 L 683.582031 296.058594 C 683.121094 295.925781 682.65625 295.886719 682.179688 295.941406 C 681.707031 295.996094 681.261719 296.136719 680.84375 296.367188 C 680.425781 296.597656 680.070312 296.902344 679.773438 297.273438 C 679.476562 297.648438 679.261719 298.0625 679.128906 298.523438 C 678.996094 298.980469 678.957031 299.449219 679.011719 299.921875 C 679.0625 300.394531 679.207031 300.84375 679.4375 301.261719 C 679.667969 301.679688 679.96875 302.035156 680.34375 302.332031 C 680.714844 302.628906 681.132812 302.847656 681.589844 302.976562 L 739.0625 318.976562 C 739.378906 319.054688 739.699219 319.09375 740.023438 319.097656 Z M 740.023438 319.097656 " fill-opacity="1" fill-rule="nonzero"/><path fill="#1c486f" d="M 403.019531 387.148438 L 403.375 387.363281 C 404.789062 388.171875 406.308594 388.65625 407.933594 388.820312 C 409.558594 388.984375 411.144531 388.808594 412.691406 388.300781 L 726.152344 285.195312 C 727.898438 284.617188 729.589844 283.910156 731.222656 283.070312 C 732.859375 282.230469 734.417969 281.265625 735.902344 280.179688 C 737.382812 279.09375 738.773438 277.902344 740.070312 276.597656 C 741.367188 275.292969 742.550781 273.898438 743.628906 272.410156 C 744.707031 270.917969 745.660156 269.355469 746.492188 267.714844 C 747.324219 266.074219 748.019531 264.382812 748.585938 262.632812 C 749.152344 260.882812 749.578125 259.101562 749.863281 257.285156 C 750.148438 255.46875 750.292969 253.644531 750.289062 251.804688 C 750.292969 248.011719 749.695312 244.320312 748.488281 240.726562 C 748.089844 239.539062 747.632812 238.382812 747.109375 237.246094 C 746.589844 236.109375 746.007812 235.007812 745.367188 233.933594 C 744.730469 232.859375 744.035156 231.824219 743.285156 230.824219 C 742.535156 229.824219 741.734375 228.867188 740.882812 227.953125 C 740.03125 227.039062 739.132812 226.175781 738.1875 225.355469 C 737.242188 224.539062 736.257812 223.773438 735.230469 223.058594 C 734.207031 222.347656 733.144531 221.691406 732.046875 221.089844 C 730.953125 220.492188 729.828125 219.953125 728.675781 219.472656 C 727.519531 218.992188 726.34375 218.574219 725.144531 218.222656 C 723.949219 217.867188 722.734375 217.578125 721.507812 217.351562 C 720.277344 217.128906 719.039062 216.96875 717.792969 216.875 C 716.546875 216.78125 715.300781 216.757812 714.050781 216.796875 C 712.804688 216.835938 711.558594 216.945312 710.324219 217.117188 C 709.085938 217.289062 707.859375 217.527344 706.648438 217.832031 C 705.4375 218.132812 704.246094 218.5 703.070312 218.933594 C 701.898438 219.363281 700.753906 219.855469 699.632812 220.40625 L 403.589844 366.828125 C 401.542969 367.832031 399.949219 369.316406 398.808594 371.285156 C 398.417969 371.945312 398.097656 372.632812 397.847656 373.355469 C 397.59375 374.074219 397.414062 374.8125 397.3125 375.570312 C 397.207031 376.328125 397.175781 377.085938 397.222656 377.847656 C 397.269531 378.613281 397.390625 379.363281 397.585938 380.101562 C 397.785156 380.839844 398.050781 381.550781 398.386719 382.234375 C 398.726562 382.921875 399.128906 383.566406 399.59375 384.171875 C 400.0625 384.777344 400.582031 385.328125 401.160156 385.828125 C 401.738281 386.332031 402.355469 386.769531 403.019531 387.148438 Z M 403.019531 387.148438 " fill-opacity="1" fill-rule="nonzero"/></svg>