<svg xmlns="http://www.w3.org/2000/svg" xmlns:xlink="http://www.w3.org/1999/xlink" width="150" zoomAndPan="magnify" viewBox="0 0 112.5 60" height="80" preserveAspectRatio="xMidYMid meet" version="1.0"><defs><g/><clipPath id="ee349ec417"><path d="M 18 1.703125 L 27 1.703125 L 27 14 L 18 14 Z M 18 1.703125 " clip-rule="nonzero"/></clipPath><clipPath id="6812c64919"><path d="M 0 8 L 47.789062 8 L 47.789062 58.449219 L 0 58.449219 Z M 0 8 " clip-rule="nonzero"/></clipPath><clipPath id="6b205410f8"><path d="M 22 0.132812 L 80 0.132812 L 80 44 L 22 44 Z M 22 0.132812 " clip-rule="nonzero"/></clipPath><clipPath id="83d5a9a539"><path d="M 29 15 L 112.003906 15 L 112.003906 59.867188 L 29 59.867188 Z M 29 15 " clip-rule="nonzero"/></clipPath><clipPath id="10bc2c6d71"><path d="M 12 6 L 112.003906 6 L 112.003906 57 L 12 57 Z M 12 6 " clip-rule="nonzero"/></clipPath></defs><g clip-path="url(#ee349ec417)"><path fill="#ffffff" d="M 26.527344 1.707031 L 26.527344 8.175781 C 23.335938 9.265625 20.519531 11.160156 18.320312 13.621094 L 18.320312 1.707031 L 26.527344 1.707031 " fill-opacity="1" fill-rule="nonzero"/></g><path fill="#ffffff" d="M 13.234375 22.058594 L 13.910156 22.058594 C 14.664062 18.871094 16.207031 15.988281 18.320312 13.625 L 12.792969 13.625 C 13.976562 14.738281 14.71875 16.316406 14.71875 18.074219 C 14.71875 19.597656 14.160156 20.992188 13.234375 22.058594 " fill-opacity="1" fill-rule="nonzero"/><g clip-path="url(#6812c64919)"><path fill="#ffbd59" d="M 8.613281 22.613281 C 6.109375 22.613281 4.074219 20.574219 4.074219 18.074219 C 4.074219 15.570312 6.109375 13.535156 8.613281 13.535156 C 11.117188 13.535156 13.152344 15.570312 13.152344 18.074219 C 13.152344 20.574219 11.117188 22.613281 8.613281 22.613281 Z M 20.207031 57.25 C 22.25 56.34375 23.671875 54.832031 24.3125 52.875 C 25.046875 50.652344 24.820312 48.183594 23.679688 45.929688 C 23.109375 44.796875 22.378906 43.753906 21.621094 42.699219 C 20.878906 41.671875 20.085938 40.621094 19.257812 39.578125 C 19.226562 39.539062 19.191406 39.507812 19.148438 39.484375 C 17.042969 36.332031 15.925781 32.652344 15.925781 28.84375 C 15.925781 26.601562 16.3125 24.402344 17.070312 22.3125 L 18.066406 22.3125 L 18.066406 34.230469 L 26.78125 34.230469 L 26.78125 22.3125 L 39.324219 22.3125 L 39.324219 13.371094 L 26.78125 13.371094 L 26.78125 11.574219 C 29.382812 10.320312 32.175781 9.683594 35.089844 9.683594 C 39.617188 9.683594 44.011719 11.292969 47.460938 14.210938 L 47.820312 13.859375 C 47.644531 13.652344 47.460938 13.441406 47.269531 13.234375 L 47.253906 13.21875 C 43.617188 9.875 38.890625 8.03125 33.945312 8.03125 C 31.34375 8.03125 28.816406 8.53125 26.433594 9.519531 C 23.773438 10.621094 21.335938 12.332031 19.390625 14.472656 C 17.4375 16.621094 15.960938 19.21875 15.121094 21.988281 C 14.5625 23.832031 14.277344 25.753906 14.277344 27.699219 C 14.277344 32.4375 15.984375 37.011719 19.085938 40.582031 C 19.894531 41.621094 20.660156 42.648438 21.359375 43.632812 C 22.171875 44.789062 22.8125 45.78125 23.285156 46.863281 C 24.347656 49.304688 24.1875 52.179688 22.878906 54.191406 C 21.933594 55.652344 20.089844 56.761719 17.949219 57.167969 C 15.992188 57.542969 13.667969 57.367188 11.574219 56.691406 C 6.855469 55.167969 4.195312 50.339844 3.03125 47.597656 C 1.257812 43.425781 0.582031 38.613281 1.074219 33.6875 C 1.394531 30.433594 2.476562 25.910156 5.777344 22.742188 C 6.605469 23.246094 7.574219 23.535156 8.613281 23.535156 C 11.625 23.535156 14.078125 21.085938 14.078125 18.074219 C 14.078125 15.0625 11.625 12.609375 8.613281 12.609375 C 5.601562 12.609375 3.148438 15.0625 3.148438 18.074219 C 3.148438 19.773438 3.929688 21.292969 5.148438 22.292969 C 4.816406 22.617188 4.507812 22.949219 4.226562 23.285156 C 1.777344 26.214844 0.382812 30.410156 0.195312 35.421875 C 0 40.769531 1.082031 45.800781 3.328125 49.964844 C 4.496094 52.125 5.910156 53.914062 7.535156 55.28125 C 9.230469 56.710938 11.289062 57.605469 13.652344 57.933594 C 16.1875 58.285156 18.390625 58.054688 20.207031 57.25 " fill-opacity="1" fill-rule="nonzero"/></g><path fill="#ffffff" d="M 8.613281 21.554688 C 10.535156 21.554688 12.09375 19.996094 12.09375 18.074219 C 12.09375 16.152344 10.535156 14.59375 8.613281 14.59375 C 6.691406 14.59375 5.132812 16.152344 5.132812 18.074219 C 5.132812 19.996094 6.691406 21.554688 8.613281 21.554688 " fill-opacity="1" fill-rule="nonzero"/><g clip-path="url(#6b205410f8)"><path stroke-linecap="butt" transform="matrix(0.166296, 0, 0, 0.166296, 40.103521, 11.510776)" fill="none" stroke-linejoin="miter" d="M 2.830478 80.998234 L 2.830478 17.176657 L 22.303458 17.176657 L 27.659115 56.099127 L 33.014772 17.176657 L 52.62869 17.176657 L 52.62869 80.998234 L 40.954298 80.998234 L 40.954298 35.005356 L 33.578525 80.998234 L 22.16252 80.998234 L 14.363932 35.005356 L 14.363932 80.998234 Z M 74.756009 81.608966 C 69.165455 81.608966 65.148712 80.058645 62.705781 76.981491 C 60.28634 73.927827 59.088364 69.323841 59.088364 63.240003 L 59.088364 41.394561 C 59.088364 36.39125 60.521237 32.562425 63.386983 29.931576 C 66.252729 27.324217 70.269472 26.008793 75.437211 26.008793 C 85.890138 26.008793 91.104856 31.129552 91.104856 41.394561 L 91.104856 45.317345 C 91.104856 49.287108 91.057877 52.5052 90.963918 54.971621 L 72.10167 54.971621 L 72.10167 65.541996 C 72.10167 67.421174 72.289588 68.901026 72.665424 69.958064 C 73.064749 71.038591 73.910379 71.555365 75.202314 71.555365 C 76.212372 71.555365 76.917063 71.273488 77.316389 70.686245 C 77.739204 70.075513 77.997591 69.394311 78.06806 68.642639 C 78.138529 67.867479 78.162019 66.739972 78.162019 65.260119 L 78.162019 59.974932 L 91.104856 59.974932 L 91.104856 63.099065 C 91.104856 69.44129 89.88339 74.092255 87.416969 77.09894 C 84.974038 80.105624 80.769378 81.608966 74.756009 81.608966 Z M 78.162019 48.511947 L 78.162019 41.535499 C 78.162019 37.612716 77.19894 35.663069 75.296273 35.663069 C 73.088239 35.663069 72.007711 37.612716 72.007711 41.535499 L 72.007711 48.511947 Z M 107.759069 81.608966 C 103.695347 81.608966 100.90007 80.387501 99.396728 77.94457 C 97.869896 75.525128 97.118225 71.907711 97.118225 67.092318 L 97.118225 26.596036 L 110.202001 26.596036 L 110.202001 64.508448 C 110.202001 64.837304 110.202001 65.776893 110.202001 67.280236 C 110.202001 68.783578 110.436898 69.864105 110.906692 70.498328 C 111.376487 71.10906 112.128158 71.414427 113.114726 71.414427 C 114.430151 71.414427 115.275781 70.874163 115.628127 69.746656 C 115.980472 68.61915 116.16839 67.021849 116.16839 64.931263 L 116.16839 64.508448 L 116.238859 26.596036 L 129.158207 26.596036 L 129.158207 80.998234 L 116.16839 80.998234 L 116.16839 75.219762 C 115.252291 77.474775 114.218743 79.119056 113.020767 80.105624 C 111.822791 81.092193 110.084552 81.608966 107.759069 81.608966 Z M 107.759069 81.608966 " stroke="#062c4d" stroke-width="19.510391" stroke-opacity="1" stroke-miterlimit="4"/></g><g fill="#ffffff" fill-opacity="1"><g transform="translate(40.103521, 24.980762)"><g><path d="M 0.46875 0 L 0.46875 -10.609375 L 3.703125 -10.609375 L 4.59375 -4.140625 L 5.484375 -10.609375 L 8.75 -10.609375 L 8.75 0 L 6.8125 0 L 6.8125 -7.65625 L 5.59375 0 L 3.6875 0 L 2.390625 -7.65625 L 2.390625 0 Z M 0.46875 0 "/></g></g></g><g fill="#ffffff" fill-opacity="1"><g transform="translate(49.569695, 24.980762)"><g><path d="M 2.96875 0.09375 C 2.03125 0.09375 1.359375 -0.160156 0.953125 -0.671875 C 0.554688 -1.179688 0.359375 -1.941406 0.359375 -2.953125 L 0.359375 -6.59375 C 0.359375 -7.414062 0.597656 -8.046875 1.078125 -8.484375 C 1.554688 -8.921875 2.222656 -9.140625 3.078125 -9.140625 C 4.816406 -9.140625 5.6875 -8.289062 5.6875 -6.59375 L 5.6875 -5.9375 C 5.6875 -5.269531 5.675781 -4.734375 5.65625 -4.328125 L 2.515625 -4.328125 L 2.515625 -2.578125 C 2.515625 -2.253906 2.546875 -2.003906 2.609375 -1.828125 C 2.679688 -1.648438 2.828125 -1.5625 3.046875 -1.5625 C 3.203125 -1.5625 3.316406 -1.609375 3.390625 -1.703125 C 3.460938 -1.804688 3.503906 -1.921875 3.515625 -2.046875 C 3.523438 -2.179688 3.53125 -2.375 3.53125 -2.625 L 3.53125 -3.5 L 5.6875 -3.5 L 5.6875 -2.984375 C 5.6875 -1.921875 5.484375 -1.140625 5.078125 -0.640625 C 4.671875 -0.148438 3.96875 0.09375 2.96875 0.09375 Z M 3.53125 -5.40625 L 3.53125 -6.5625 C 3.53125 -7.21875 3.367188 -7.546875 3.046875 -7.546875 C 2.691406 -7.546875 2.515625 -7.21875 2.515625 -6.5625 L 2.515625 -5.40625 Z M 3.53125 -5.40625 "/></g></g></g><g fill="#ffffff" fill-opacity="1"><g transform="translate(55.847538, 24.980762)"><g><path d="M 2.171875 0.09375 C 1.492188 0.09375 1.03125 -0.101562 0.78125 -0.5 C 0.53125 -0.90625 0.40625 -1.507812 0.40625 -2.3125 L 0.40625 -9.046875 L 2.578125 -9.046875 L 2.578125 -2.75 C 2.578125 -2.6875 2.578125 -2.53125 2.578125 -2.28125 C 2.578125 -2.03125 2.613281 -1.851562 2.6875 -1.75 C 2.769531 -1.644531 2.894531 -1.59375 3.0625 -1.59375 C 3.289062 -1.59375 3.429688 -1.6875 3.484375 -1.875 C 3.546875 -2.0625 3.578125 -2.328125 3.578125 -2.671875 L 3.578125 -9.046875 L 5.734375 -9.046875 L 5.734375 0 L 3.578125 0 L 3.578125 -0.96875 C 3.421875 -0.582031 3.242188 -0.304688 3.046875 -0.140625 C 2.847656 0.015625 2.554688 0.09375 2.171875 0.09375 Z M 2.171875 0.09375 "/></g></g></g><g clip-path="url(#83d5a9a539)"><path stroke-linecap="butt" transform="matrix(0.166296, 0, 0, 0.166296, 52.367222, 33.018708)" fill="none" stroke-linejoin="miter" d="M 21.798256 101.738939 C 8.432604 101.738939 1.761523 94.973899 1.761523 81.420329 L 1.855482 76.064672 L 18.016411 76.064672 L 18.11037 84.004198 C 18.11037 85.601499 18.415736 86.822965 19.026469 87.645105 C 19.637202 88.490735 20.64726 88.890061 22.080133 88.890061 C 24.217698 88.890061 25.298225 87.151821 25.298225 83.651852 C 25.298225 81.044493 24.781451 79.024377 23.771393 77.544525 C 22.761335 76.064672 21.140544 74.490861 18.93251 72.84658 L 10.358761 66.198988 C 7.375567 63.896996 5.261492 61.548023 3.969557 59.128582 C 2.677622 56.70914 2.01991 53.256151 2.01991 48.840083 C 2.01991 45.387094 2.936009 42.427389 4.768207 40.007948 C 6.576916 37.588506 8.996358 35.756308 12.003042 34.511352 C 15.009727 33.289887 18.368757 32.679154 22.080133 32.679154 C 35.187398 32.679154 41.717541 39.185807 41.717541 52.246093 L 41.717541 53.538028 L 25.016348 53.538028 L 25.016348 50.954158 C 25.016348 49.333367 24.757962 47.970964 24.241188 46.843457 C 23.700924 45.71595 22.831804 45.128707 21.586849 45.128707 C 20.506322 45.128707 19.660692 45.457563 19.073449 46.115275 C 18.486206 46.749498 18.204329 47.642107 18.204329 48.746124 C 18.204329 51.212545 19.143918 53.115213 21.046585 54.477617 L 31.029718 61.759431 C 34.600155 64.39028 37.348453 67.279516 39.25112 70.380159 C 41.153788 73.504292 42.116867 77.427076 42.116867 82.14851 C 42.116867 88.443756 40.331648 93.282639 36.73772 96.665159 C 33.190772 100.047679 28.210951 101.738939 21.798256 101.738939 Z M 67.861603 101.738939 C 60.908645 101.738939 55.905334 99.836271 52.898649 96.007447 C 49.891965 92.202112 48.388623 86.494109 48.388623 78.930418 L 48.388623 51.776299 C 48.388623 45.575012 50.173842 40.830088 53.72079 37.565016 C 57.314717 34.299945 62.294539 32.679154 68.707233 32.679154 C 81.67356 32.679154 88.180213 39.044869 88.180213 51.776299 L 88.180213 56.685651 C 88.180213 61.618492 88.109744 65.611745 87.992295 68.665409 L 64.549552 68.665409 L 64.549552 81.796164 C 64.549552 84.145137 64.784449 85.977335 65.277733 87.292759 C 65.771018 88.608184 66.828055 89.265896 68.425356 89.265896 C 69.670311 89.265896 70.539431 88.91355 71.032715 88.161879 C 71.572979 87.433698 71.878345 86.588068 71.972304 85.648479 C 72.066263 84.6854 72.113243 83.276017 72.113243 81.420329 L 72.113243 74.866696 L 88.180213 74.866696 L 88.180213 78.7425 C 88.180213 86.635047 86.653381 92.437009 83.599717 96.148385 C 80.569543 99.883251 75.307845 101.738939 67.861603 101.738939 Z M 72.113243 60.655414 L 72.113243 51.964216 C 72.113243 47.101844 70.915267 44.658913 68.519315 44.658913 C 65.794507 44.658913 64.432103 47.101844 64.432103 51.964216 L 64.432103 60.655414 Z M 114.018908 110.876441 C 109.227005 110.876441 105.445159 110.500606 102.696862 109.725445 C 99.972054 108.950284 97.270736 107.493921 94.639887 105.356356 L 100.183461 96.007447 C 104.129735 98.356419 108.029029 99.507415 111.904833 99.507415 C 114.418233 99.507415 116.344391 98.708765 117.636325 97.111464 C 118.92826 95.514162 119.562483 93.329618 119.562483 90.557831 L 119.562483 86.869944 C 118.270548 91.49742 114.864538 93.799413 109.320964 93.799413 C 104.693488 93.799413 101.287478 92.249091 99.102934 89.101468 C 96.91839 85.953845 95.837863 81.772675 95.837863 76.534466 L 95.837863 51.142076 C 95.837863 45.175687 96.824431 40.595191 98.821057 37.424078 C 100.841174 34.252965 104.341142 32.679154 109.320964 32.679154 C 112.210199 32.679154 114.512192 33.383846 116.179963 34.840209 C 117.894712 36.273082 119.022219 38.316687 119.562483 40.994516 L 119.562483 33.407335 L 136.099247 33.407335 L 136.099247 89.547773 C 136.099247 97.111464 134.337518 102.561079 130.81406 105.89662 C 127.314091 109.208671 121.723537 110.876441 114.018908 110.876441 Z M 115.780637 81.608247 C 118.294038 81.608247 119.562483 79.329743 119.562483 74.772737 L 119.562483 50.672282 C 119.562483 49.333367 119.210137 48.041433 118.458466 46.796477 C 117.730284 45.575012 116.814185 44.964279 115.686678 44.964279 C 114.277295 44.964279 113.314216 45.457563 112.820932 46.491111 C 112.327648 47.501169 112.092751 48.887063 112.092751 50.672282 L 112.092751 74.772737 C 112.092751 76.816343 112.327648 78.460624 112.820932 79.729069 C 113.314216 80.974024 114.300785 81.608247 115.780637 81.608247 Z M 157.239998 101.738939 C 152.189708 101.738939 148.736718 100.235597 146.857541 97.205422 C 144.978363 94.198738 144.038774 89.688711 144.038774 83.722322 L 144.038774 33.407335 L 160.293662 33.407335 L 160.293662 80.50423 C 160.293662 80.927045 160.293662 82.078041 160.293662 83.957219 C 160.293662 85.836397 160.575539 87.175311 161.162782 87.950472 C 161.750025 88.702143 162.666124 89.101468 163.88759 89.101468 C 165.55536 89.101468 166.588908 88.396776 167.035212 87.034373 C 167.458027 85.624989 167.669435 83.628363 167.669435 81.044493 L 167.669435 80.50423 L 167.763394 33.407335 L 183.830364 33.407335 L 183.830364 101.010758 L 167.669435 101.010758 L 167.669435 93.799413 C 166.565418 96.641669 165.273483 98.661785 163.770141 99.906741 C 162.313778 101.128206 160.129234 101.738939 157.239998 101.738939 Z M 192.122236 33.407335 L 208.283166 33.407335 L 208.283166 40.900557 C 209.081816 38.246218 210.4912 36.179123 212.487826 34.74625 C 214.507942 33.289887 216.974363 32.585195 219.934068 32.585195 L 219.934068 46.068296 C 217.655565 46.068296 215.142165 46.373662 212.393867 47.031375 C 209.669059 47.665597 208.283166 48.417268 208.283166 49.286388 L 208.283166 101.010758 L 192.122236 101.010758 Z M 245.420417 101.738939 C 231.937316 101.738939 225.195766 94.762491 225.195766 80.786106 L 225.195766 53.631987 C 225.195766 47.242782 226.980985 42.145512 230.574913 38.340177 C 234.19233 34.558332 239.125172 32.679154 245.420417 32.679154 C 251.692173 32.679154 256.625015 34.558332 260.218943 38.340177 C 263.83636 42.145512 265.645069 47.242782 265.645069 53.631987 L 265.645069 80.786106 C 265.645069 94.762491 258.903518 101.738939 245.420417 101.738939 Z M 245.420417 89.265896 C 246.712352 89.265896 247.675431 88.819591 248.286163 87.903492 C 248.896896 86.963903 249.202263 85.695458 249.202263 84.098157 L 249.202263 51.048117 C 249.202263 47.101844 247.933818 45.128707 245.420417 45.128707 C 242.883527 45.128707 241.638572 47.101844 241.638572 51.048117 L 241.638572 84.098157 C 241.638572 85.695458 241.943938 86.963903 242.554671 87.903492 C 243.165404 88.819591 244.128483 89.265896 245.420417 89.265896 Z M 245.420417 89.265896 " stroke="#062c4d" stroke-width="24.240038" stroke-opacity="1" stroke-miterlimit="4"/></g><g fill="#ffbd59" fill-opacity="1"><g transform="translate(52.367222, 49.814617)"><g><path d="M 3.625 0.125 C 1.40625 0.125 0.296875 -1 0.296875 -3.25 L 0.3125 -4.140625 L 3 -4.140625 L 3.015625 -2.828125 C 3.015625 -2.554688 3.0625 -2.351562 3.15625 -2.21875 C 3.257812 -2.082031 3.429688 -2.015625 3.671875 -2.015625 C 4.023438 -2.015625 4.203125 -2.304688 4.203125 -2.890625 C 4.203125 -3.316406 4.117188 -3.648438 3.953125 -3.890625 C 3.785156 -4.140625 3.519531 -4.40625 3.15625 -4.6875 L 1.71875 -5.796875 C 1.226562 -6.171875 0.875 -6.5625 0.65625 -6.96875 C 0.445312 -7.375 0.34375 -7.941406 0.34375 -8.671875 C 0.34375 -9.242188 0.492188 -9.734375 0.796875 -10.140625 C 1.097656 -10.546875 1.5 -10.847656 2 -11.046875 C 2.5 -11.253906 3.054688 -11.359375 3.671875 -11.359375 C 5.847656 -11.359375 6.9375 -10.273438 6.9375 -8.109375 L 6.9375 -7.890625 L 4.15625 -7.890625 L 4.15625 -8.328125 C 4.15625 -8.585938 4.113281 -8.8125 4.03125 -9 C 3.945312 -9.195312 3.800781 -9.296875 3.59375 -9.296875 C 3.40625 -9.296875 3.265625 -9.238281 3.171875 -9.125 C 3.078125 -9.019531 3.03125 -8.875 3.03125 -8.6875 C 3.03125 -8.28125 3.1875 -7.960938 3.5 -7.734375 L 5.15625 -6.53125 C 5.75 -6.09375 6.203125 -5.613281 6.515625 -5.09375 C 6.835938 -4.570312 7 -3.921875 7 -3.140625 C 7 -2.085938 6.703125 -1.28125 6.109375 -0.71875 C 5.515625 -0.15625 4.6875 0.125 3.625 0.125 Z M 3.625 0.125 "/></g></g></g><g fill="#ffbd59" fill-opacity="1"><g transform="translate(59.967403, 49.814617)"><g><path d="M 3.6875 0.125 C 2.53125 0.125 1.703125 -0.191406 1.203125 -0.828125 C 0.703125 -1.460938 0.453125 -2.410156 0.453125 -3.671875 L 0.453125 -8.1875 C 0.453125 -9.21875 0.75 -10.003906 1.34375 -10.546875 C 1.9375 -11.085938 2.765625 -11.359375 3.828125 -11.359375 C 5.984375 -11.359375 7.0625 -10.300781 7.0625 -8.1875 L 7.0625 -7.375 C 7.0625 -6.550781 7.050781 -5.882812 7.03125 -5.375 L 3.140625 -5.375 L 3.140625 -3.1875 C 3.140625 -2.800781 3.175781 -2.5 3.25 -2.28125 C 3.332031 -2.0625 3.507812 -1.953125 3.78125 -1.953125 C 3.976562 -1.953125 4.117188 -2.007812 4.203125 -2.125 C 4.296875 -2.25 4.347656 -2.390625 4.359375 -2.546875 C 4.378906 -2.710938 4.390625 -2.945312 4.390625 -3.25 L 4.390625 -4.34375 L 7.0625 -4.34375 L 7.0625 -3.703125 C 7.0625 -2.390625 6.804688 -1.421875 6.296875 -0.796875 C 5.796875 -0.179688 4.925781 0.125 3.6875 0.125 Z M 4.390625 -6.71875 L 4.390625 -8.15625 C 4.390625 -8.96875 4.191406 -9.375 3.796875 -9.375 C 3.347656 -9.375 3.125 -8.96875 3.125 -8.15625 L 3.125 -6.71875 Z M 4.390625 -6.71875 "/></g></g></g><g fill="#ffbd59" fill-opacity="1"><g transform="translate(67.767185, 49.814617)"><g><path d="M 3.5625 1.640625 C 2.757812 1.640625 2.128906 1.578125 1.671875 1.453125 C 1.222656 1.328125 0.78125 1.082031 0.34375 0.71875 L 1.265625 -0.828125 C 1.921875 -0.441406 2.566406 -0.25 3.203125 -0.25 C 3.628906 -0.25 3.945312 -0.378906 4.15625 -0.640625 C 4.375 -0.910156 4.484375 -1.273438 4.484375 -1.734375 L 4.484375 -2.34375 C 4.265625 -1.582031 3.695312 -1.203125 2.78125 -1.203125 C 2.007812 -1.203125 1.441406 -1.460938 1.078125 -1.984375 C 0.710938 -2.503906 0.53125 -3.195312 0.53125 -4.0625 L 0.53125 -8.296875 C 0.53125 -9.285156 0.695312 -10.039062 1.03125 -10.5625 C 1.363281 -11.09375 1.945312 -11.359375 2.78125 -11.359375 C 3.257812 -11.359375 3.640625 -11.238281 3.921875 -11 C 4.203125 -10.757812 4.390625 -10.421875 4.484375 -9.984375 L 4.484375 -11.25 L 7.234375 -11.25 L 7.234375 -1.90625 C 7.234375 -0.644531 6.941406 0.257812 6.359375 0.8125 C 5.773438 1.363281 4.84375 1.640625 3.5625 1.640625 Z M 3.859375 -3.21875 C 4.273438 -3.21875 4.484375 -3.597656 4.484375 -4.359375 L 4.484375 -8.375 C 4.484375 -8.59375 4.421875 -8.804688 4.296875 -9.015625 C 4.171875 -9.222656 4.019531 -9.328125 3.84375 -9.328125 C 3.601562 -9.328125 3.441406 -9.238281 3.359375 -9.0625 C 3.273438 -8.894531 3.234375 -8.664062 3.234375 -8.375 L 3.234375 -4.359375 C 3.234375 -4.023438 3.273438 -3.75 3.359375 -3.53125 C 3.441406 -3.320312 3.609375 -3.21875 3.859375 -3.21875 Z M 3.859375 -3.21875 "/></g></g></g><g fill="#ffbd59" fill-opacity="1"><g transform="translate(75.812627, 49.814617)"><g><path d="M 2.703125 0.125 C 1.859375 0.125 1.28125 -0.125 0.96875 -0.625 C 0.65625 -1.125 0.5 -1.875 0.5 -2.875 L 0.5 -11.25 L 3.203125 -11.25 L 3.203125 -3.40625 C 3.203125 -3.332031 3.203125 -3.140625 3.203125 -2.828125 C 3.203125 -2.515625 3.25 -2.296875 3.34375 -2.171875 C 3.445312 -2.046875 3.601562 -1.984375 3.8125 -1.984375 C 4.082031 -1.984375 4.253906 -2.097656 4.328125 -2.328125 C 4.398438 -2.554688 4.4375 -2.882812 4.4375 -3.3125 L 4.4375 -3.40625 L 4.453125 -11.25 L 7.125 -11.25 L 7.125 0 L 4.4375 0 L 4.4375 -1.203125 C 4.25 -0.722656 4.03125 -0.378906 3.78125 -0.171875 C 3.539062 0.0234375 3.179688 0.125 2.703125 0.125 Z M 2.703125 0.125 "/></g></g></g><g fill="#ffbd59" fill-opacity="1"><g transform="translate(83.781298, 49.814617)"><g><path d="M 0.53125 -11.25 L 3.21875 -11.25 L 3.21875 -10 C 3.351562 -10.4375 3.585938 -10.773438 3.921875 -11.015625 C 4.253906 -11.253906 4.664062 -11.375 5.15625 -11.375 L 5.15625 -9.140625 C 4.78125 -9.140625 4.363281 -9.082031 3.90625 -8.96875 C 3.445312 -8.863281 3.21875 -8.738281 3.21875 -8.59375 L 3.21875 0 L 0.53125 0 Z M 0.53125 -11.25 "/></g></g></g><g fill="#ffbd59" fill-opacity="1"><g transform="translate(89.370133, 49.814617)"><g><path d="M 3.8125 0.125 C 1.570312 0.125 0.453125 -1.035156 0.453125 -3.359375 L 0.453125 -7.875 C 0.453125 -8.945312 0.75 -9.796875 1.34375 -10.421875 C 1.945312 -11.046875 2.769531 -11.359375 3.8125 -11.359375 C 4.851562 -11.359375 5.671875 -11.046875 6.265625 -10.421875 C 6.867188 -9.796875 7.171875 -8.945312 7.171875 -7.875 L 7.171875 -3.359375 C 7.171875 -1.035156 6.050781 0.125 3.8125 0.125 Z M 3.8125 -1.953125 C 4.019531 -1.953125 4.175781 -2.023438 4.28125 -2.171875 C 4.382812 -2.328125 4.4375 -2.539062 4.4375 -2.8125 L 4.4375 -8.3125 C 4.4375 -8.96875 4.226562 -9.296875 3.8125 -9.296875 C 3.382812 -9.296875 3.171875 -8.96875 3.171875 -8.3125 L 3.171875 -2.8125 C 3.171875 -2.539062 3.222656 -2.328125 3.328125 -2.171875 C 3.429688 -2.023438 3.59375 -1.953125 3.8125 -1.953125 Z M 3.8125 -1.953125 "/></g></g></g><g clip-path="url(#10bc2c6d71)"><path stroke-linecap="butt" transform="matrix(0.166296, 0, 0, 0.166296, 30.386031, 22.457099)" fill="none" stroke-linejoin="miter" d="M 1.108151 80.992158 L 7.285948 17.170581 L 28.896493 17.170581 L 35.003821 80.992158 L 22.906614 80.992158 L 21.990515 70.68017 L 14.262396 70.68017 L 13.510725 80.992158 Z M 15.248964 60.48563 L 21.027436 60.48563 L 18.20867 28.022833 L 17.621426 28.022833 Z M 56.473428 81.602891 C 50.530528 81.602891 46.255399 80.076059 43.62455 77.069375 C 40.993701 74.0392 39.678276 69.411725 39.678276 63.163459 L 39.678276 46.368307 C 39.678276 41.646873 40.19505 37.841537 41.205108 34.905322 C 42.238656 31.945617 43.929916 29.714093 46.325868 28.234241 C 48.745309 26.754388 52.05736 26.002717 56.33249 26.002717 C 60.983455 26.002717 64.7653 27.224183 67.701515 29.643624 C 70.637731 32.063066 72.094094 35.469075 72.094094 39.838164 L 72.094094 48.153526 L 58.86938 48.153526 L 58.86938 40.495876 C 58.86938 39.063003 58.657972 37.958986 58.258647 37.207315 C 57.859322 36.432154 57.10765 36.032829 55.956654 36.032829 C 53.842579 36.032829 52.762052 37.559661 52.762052 40.566345 L 52.762052 66.945304 C 52.762052 68.190259 53.020439 69.247297 53.560702 70.116417 C 54.077476 70.985536 54.852637 71.408351 55.886185 71.408351 C 56.919733 71.408351 57.718383 70.985536 58.235157 70.139906 C 58.751931 69.294276 58.986828 68.213749 58.939849 66.874835 L 58.86938 57.737333 L 72.094094 57.737333 L 72.094094 67.25067 C 72.094094 71.713718 70.637731 75.213686 67.748495 77.774066 C 64.835769 80.310956 61.077414 81.602891 56.473428 81.602891 Z M 93.939536 81.602891 C 83.087284 81.602891 77.661158 75.965358 77.661158 64.71378 L 77.661158 42.868338 C 77.661158 37.724089 79.117521 33.613387 82.006757 30.583213 C 84.895992 27.529549 88.889245 26.002717 93.939536 26.002717 C 98.989826 26.002717 102.959589 27.529549 105.848825 30.583213 C 108.761551 33.613387 110.217914 37.724089 110.217914 42.868338 L 110.217914 64.71378 C 110.217914 75.965358 104.791788 81.602891 93.939536 81.602891 Z M 93.939536 71.572779 C 94.973084 71.572779 95.748244 71.196944 96.241529 70.468762 C 96.734813 69.717091 96.9932 68.683543 96.9932 67.391609 L 96.9932 40.801243 C 96.9932 37.63013 95.959652 36.032829 93.939536 36.032829 C 91.89593 36.032829 90.885872 37.63013 90.885872 40.801243 L 90.885872 67.391609 C 90.885872 68.683543 91.144259 69.717091 91.637543 70.468762 C 92.130827 71.196944 92.905988 71.572779 93.939536 71.572779 Z M 116.513159 26.61345 L 129.244589 26.61345 L 129.244589 32.908696 C 129.831832 30.583213 130.84189 28.844974 132.274763 27.717467 C 133.707636 26.566471 135.751242 26.002717 138.382091 26.002717 C 140.519656 26.002717 142.351854 26.496001 143.925666 27.45908 C 145.475988 28.422159 146.580004 29.737583 147.214227 31.428843 C 148.294754 29.549665 149.51622 28.163772 150.855134 27.318142 C 152.194048 26.449022 154.049736 26.002717 156.445688 26.002717 C 160.697328 26.002717 163.657033 27.294652 165.301314 29.902011 C 166.969084 32.50937 167.814714 36.291216 167.814714 41.247547 L 167.650286 80.992158 L 154.59 80.992158 L 154.59 41.01265 C 154.59 37.512681 153.69739 35.750952 151.888682 35.750952 C 150.667216 35.750952 149.774607 36.361685 149.234343 37.559661 C 148.69408 38.781126 148.412203 40.213999 148.412203 41.90526 L 148.412203 80.992158 L 135.398896 80.992158 L 135.398896 41.01265 C 135.398896 39.462328 135.234468 38.240863 134.905612 37.301274 C 134.576756 36.361685 133.895554 35.89189 132.862006 35.89189 C 131.523092 35.89189 130.606993 36.549603 130.04324 37.865027 C 129.502976 39.180452 129.244589 40.754263 129.244589 42.562972 L 129.244589 80.992158 L 116.513159 80.992158 Z M 174.321367 26.61345 L 187.569571 26.61345 L 187.569571 29.479196 C 189.448749 27.153714 192.056108 26.002717 195.368159 26.002717 C 199.596309 26.002717 202.532524 27.412101 204.176805 30.254357 C 205.844575 33.073124 206.666715 36.972418 206.666715 41.999218 L 206.666715 62.129911 C 206.666715 66.381551 206.408328 69.85803 205.915044 72.559348 C 205.42176 75.260666 204.341233 77.44521 202.649973 79.11298 C 200.982202 80.780751 198.421823 81.602891 194.992323 81.602891 C 191.727252 81.602891 189.260831 80.686792 187.569571 78.831104 L 187.569571 91.84441 L 174.321367 91.84441 Z M 190.670214 71.50231 C 191.86819 71.50231 192.643351 70.938557 192.995697 69.85803 C 193.324553 68.754013 193.512471 67.156712 193.512471 65.089616 L 193.512471 41.999218 C 193.512471 40.096551 193.324553 38.663678 192.995697 37.677109 C 192.643351 36.690541 191.8447 36.173767 190.599745 36.173767 C 188.579629 36.173767 187.569571 38.052945 187.569571 41.83479 L 187.569571 65.676859 C 187.569571 67.532547 187.780978 68.94193 188.203793 69.975478 C 188.626608 70.985536 189.448749 71.50231 190.670214 71.50231 Z M 222.874624 81.602891 C 218.646474 81.602891 215.757238 80.193508 214.206916 77.398231 C 212.656595 74.602954 211.857944 70.586211 211.857944 65.394982 C 211.857944 61.143342 212.421697 57.878271 213.525714 55.599768 C 214.653221 53.321265 216.203543 51.630005 218.17668 50.572967 C 220.173306 49.51593 223.17999 48.317954 227.243712 47.026019 L 230.81415 45.851533 L 230.81415 40.260979 C 230.81415 38.828106 230.532274 37.747579 229.96852 36.972418 C 229.381277 36.197257 228.723565 35.821421 227.924914 35.821421 C 227.220223 35.821421 226.60949 36.150277 226.092716 36.7845 C 225.575942 37.418722 225.317555 38.287842 225.317555 39.368369 L 225.317555 42.633441 L 212.680084 42.633441 L 212.680084 40.871712 C 212.680084 35.516055 213.92504 31.71072 216.43844 29.432217 C 218.95184 27.153714 223.015562 26.002717 228.676586 26.002717 C 233.163123 26.002717 236.827519 27.177203 239.646286 29.549665 C 242.488543 31.898638 243.897926 35.210689 243.897926 39.532798 L 243.897926 80.992158 L 230.978578 80.992158 L 230.978578 74.532484 C 230.320866 76.764008 229.287318 78.502248 227.877935 79.747203 C 226.468552 80.992158 224.800781 81.602891 222.874624 81.602891 Z M 227.995384 71.50231 C 228.981952 71.50231 229.686644 71.079495 230.109459 70.280845 C 230.532274 69.458704 230.743681 68.448646 230.743681 67.25067 L 230.743681 52.099799 C 228.817524 52.827981 227.384651 53.76757 226.468552 54.918566 C 225.552452 56.069562 225.106148 57.643374 225.106148 59.66349 L 225.106148 66.639938 C 225.106148 69.881519 226.069226 71.50231 227.995384 71.50231 Z M 250.3576 26.61345 L 263.370906 26.61345 L 263.370906 33.519428 C 263.91117 31.287905 264.850759 29.479196 266.166183 28.093303 C 267.528587 26.707409 269.313806 26.002717 271.54533 26.002717 C 275.209726 26.002717 277.911045 27.130224 279.672774 29.385237 C 281.434503 31.640251 282.327112 34.858343 282.327112 39.016024 L 282.327112 80.992158 L 269.525213 80.992158 L 269.525213 40.331448 C 269.525213 39.156962 269.290316 38.146904 268.820522 37.301274 C 268.350727 36.455644 267.622546 36.032829 266.635978 36.032829 C 265.297063 36.032829 264.427944 36.643562 264.005129 37.865027 C 263.582314 39.086493 263.370906 40.707284 263.370906 42.7274 L 263.370906 80.992158 L 250.3576 80.992158 Z M 288.927725 16.794746 L 302.316866 16.794746 L 302.316866 31.945617 C 303.70276 27.999344 306.333609 26.002717 310.256393 26.002717 C 313.92079 26.002717 316.692577 27.177203 318.571755 29.502686 C 320.450932 31.828168 321.390521 35.022771 321.390521 39.086493 L 321.390521 80.992158 L 308.400705 80.992158 L 308.400705 39.908633 C 308.400705 38.710657 308.142318 37.747579 307.578564 37.019397 C 307.038301 36.267726 306.23965 35.89189 305.206102 35.89189 C 304.313493 35.89189 303.608801 36.291216 303.092027 37.042887 C 302.575253 37.818048 302.316866 38.734147 302.316866 39.838164 L 302.316866 80.992158 L 288.927725 80.992158 Z M 337.833327 81.602891 C 333.605177 81.602891 330.739431 80.193508 329.16562 77.398231 C 327.615298 74.602954 326.840137 70.586211 326.840137 65.394982 C 326.840137 61.143342 327.380401 57.878271 328.507907 55.599768 C 329.611924 53.321265 331.162246 51.630005 333.135383 50.572967 C 335.132009 49.51593 338.162183 48.317954 342.225905 47.026019 L 345.772854 45.851533 L 345.772854 40.260979 C 345.772854 38.828106 345.490977 37.747579 344.927224 36.972418 C 344.339981 36.197257 343.682268 35.821421 342.883618 35.821421 C 342.178926 35.821421 341.568193 36.150277 341.051419 36.7845 C 340.534645 37.418722 340.276258 38.287842 340.276258 39.368369 L 340.276258 42.633441 L 327.638788 42.633441 L 327.638788 40.871712 C 327.638788 35.516055 328.907233 31.71072 331.397143 29.432217 C 333.910544 27.153714 337.974266 26.002717 343.635289 26.002717 C 348.121826 26.002717 351.786223 27.177203 354.604989 29.549665 C 357.447246 31.898638 358.856629 35.210689 358.856629 39.532798 L 358.856629 80.992158 L 345.937282 80.992158 L 345.937282 74.532484 C 345.279569 76.764008 344.246022 78.502248 342.836638 79.747203 C 341.427255 80.992158 339.759485 81.602891 337.833327 81.602891 Z M 342.954087 71.50231 C 343.940655 71.50231 344.645347 71.079495 345.068162 70.280845 C 345.490977 69.458704 345.702384 68.448646 345.702384 67.25067 L 345.702384 52.099799 C 343.776227 52.827981 342.366844 53.76757 341.427255 54.918566 C 340.511156 56.069562 340.064851 57.643374 340.064851 59.66349 L 340.064851 66.639938 C 340.064851 69.881519 341.02793 71.50231 342.954087 71.50231 Z M 365.316303 26.61345 L 378.329609 26.61345 L 378.329609 33.519428 C 378.869873 31.287905 379.809462 29.479196 381.148376 28.093303 C 382.48729 26.707409 384.272509 26.002717 386.504033 26.002717 C 390.16843 26.002717 392.893238 27.130224 394.631477 29.385237 C 396.393206 31.640251 397.285816 34.858343 397.285816 39.016024 L 397.285816 80.992158 L 384.483917 80.992158 L 384.483917 40.331448 C 384.483917 39.156962 384.24902 38.146904 383.779225 37.301274 C 383.309431 36.455644 382.581249 36.032829 381.594681 36.032829 C 380.255767 36.032829 379.386647 36.643562 378.963832 37.865027 C 378.541017 39.086493 378.329609 40.707284 378.329609 42.7274 L 378.329609 80.992158 L 365.316303 80.992158 Z M 415.114515 81.602891 C 411.685016 81.602891 409.336043 80.87471 408.044109 79.441837 C 406.752174 78.008963 406.117951 75.706971 406.117951 72.535858 L 406.117951 38.569719 L 402.477044 38.569719 L 402.477044 28.680546 L 406.117951 28.680546 L 406.117951 17.170581 L 418.755422 17.170581 L 418.755422 28.680546 L 422.466798 28.680546 L 422.466798 38.569719 L 418.755422 38.569719 L 418.755422 69.106358 C 418.755422 70.045947 418.825891 70.727149 418.99032 71.173454 C 419.131258 71.619759 419.530583 71.854656 420.164806 71.854656 C 420.65809 71.854656 421.127884 71.831166 421.574189 71.784187 C 422.020494 71.737207 422.32586 71.713718 422.466798 71.713718 L 422.466798 80.639812 C 421.715127 80.82773 420.65809 81.039138 419.225217 81.250545 C 417.815833 81.485442 416.453429 81.602891 415.114515 81.602891 Z M 443.278693 81.602891 C 437.688139 81.602891 433.671396 80.052569 431.228465 76.998905 C 428.809024 73.921752 427.611048 69.341256 427.611048 63.233928 L 427.611048 41.388486 C 427.611048 36.385175 429.043921 32.55635 431.909667 29.948991 C 434.775413 27.318142 438.792156 26.002717 443.959895 26.002717 C 454.389332 26.002717 459.62754 31.123477 459.62754 41.388486 L 459.62754 45.334759 C 459.62754 49.304522 459.58056 52.522614 459.486602 54.989035 L 440.600864 54.989035 L 440.600864 65.535921 C 440.600864 67.438588 440.812272 68.894951 441.188108 69.975478 C 441.587433 71.032516 442.433063 71.572779 443.724998 71.572779 C 444.711566 71.572779 445.416258 71.267413 445.839073 70.68017 C 446.261888 70.092927 446.496785 69.411725 446.590744 68.636564 C 446.661213 67.861403 446.684703 66.733896 446.684703 65.254044 L 446.684703 59.968856 L 459.62754 59.968856 L 459.62754 63.092989 C 459.62754 69.435215 458.406074 74.109669 455.939653 77.092864 C 453.496722 80.099549 449.268572 81.602891 443.278693 81.602891 Z M 446.684703 48.529361 L 446.684703 41.529424 C 446.684703 37.60664 445.721624 35.656993 443.795467 35.656993 C 441.610923 35.656993 440.530395 37.60664 440.530395 41.529424 L 440.530395 48.529361 Z M 446.684703 48.529361 " stroke="#062c4d" stroke-width="19.510391" stroke-opacity="1" stroke-miterlimit="4"/></g><g fill="#ffffff" fill-opacity="1"><g transform="translate(30.386031, 35.927085)"><g><path d="M 0.1875 0 L 1.21875 -10.609375 L 4.8125 -10.609375 L 5.828125 0 L 3.8125 0 L 3.65625 -1.71875 L 2.375 -1.71875 L 2.25 0 Z M 2.53125 -3.40625 L 3.5 -3.40625 L 3.03125 -8.8125 L 2.921875 -8.8125 Z M 2.53125 -3.40625 "/></g></g></g><g fill="#ffffff" fill-opacity="1"><g transform="translate(36.626799, 35.927085)"><g><path d="M 3.15625 0.09375 C 2.164062 0.09375 1.453125 -0.15625 1.015625 -0.65625 C 0.578125 -1.15625 0.359375 -1.925781 0.359375 -2.96875 L 0.359375 -5.765625 C 0.359375 -6.546875 0.441406 -7.179688 0.609375 -7.671875 C 0.773438 -8.160156 1.054688 -8.523438 1.453125 -8.765625 C 1.859375 -9.015625 2.414062 -9.140625 3.125 -9.140625 C 3.894531 -9.140625 4.523438 -8.9375 5.015625 -8.53125 C 5.503906 -8.132812 5.75 -7.570312 5.75 -6.84375 L 5.75 -5.46875 L 3.546875 -5.46875 L 3.546875 -6.734375 C 3.546875 -6.972656 3.507812 -7.15625 3.4375 -7.28125 C 3.375 -7.414062 3.25 -7.484375 3.0625 -7.484375 C 2.707031 -7.484375 2.53125 -7.226562 2.53125 -6.71875 L 2.53125 -2.328125 C 2.53125 -2.128906 2.570312 -1.957031 2.65625 -1.8125 C 2.75 -1.664062 2.878906 -1.59375 3.046875 -1.59375 C 3.222656 -1.59375 3.351562 -1.660156 3.4375 -1.796875 C 3.53125 -1.941406 3.570312 -2.125 3.5625 -2.34375 L 3.546875 -3.875 L 5.75 -3.875 L 5.75 -2.28125 C 5.75 -1.539062 5.503906 -0.957031 5.015625 -0.53125 C 4.535156 -0.113281 3.914062 0.09375 3.15625 0.09375 Z M 3.15625 0.09375 "/></g></g></g><g fill="#ffffff" fill-opacity="1"><g transform="translate(42.941715, 35.927085)"><g><path d="M 3.0625 0.09375 C 1.257812 0.09375 0.359375 -0.835938 0.359375 -2.703125 L 0.359375 -6.34375 C 0.359375 -7.195312 0.597656 -7.875 1.078125 -8.375 C 1.554688 -8.882812 2.21875 -9.140625 3.0625 -9.140625 C 3.90625 -9.140625 4.566406 -8.882812 5.046875 -8.375 C 5.523438 -7.875 5.765625 -7.195312 5.765625 -6.34375 L 5.765625 -2.703125 C 5.765625 -0.835938 4.863281 0.09375 3.0625 0.09375 Z M 3.0625 -1.5625 C 3.238281 -1.5625 3.367188 -1.625 3.453125 -1.75 C 3.535156 -1.875 3.578125 -2.046875 3.578125 -2.265625 L 3.578125 -6.6875 C 3.578125 -7.21875 3.40625 -7.484375 3.0625 -7.484375 C 2.726562 -7.484375 2.5625 -7.21875 2.5625 -6.6875 L 2.5625 -2.265625 C 2.5625 -2.046875 2.601562 -1.875 2.6875 -1.75 C 2.769531 -1.625 2.894531 -1.5625 3.0625 -1.5625 Z M 3.0625 -1.5625 "/></g></g></g><g fill="#ffffff" fill-opacity="1"><g transform="translate(49.330778, 35.927085)"><g><path d="M 0.4375 -9.046875 L 2.546875 -9.046875 L 2.546875 -8 C 2.640625 -8.382812 2.804688 -8.671875 3.046875 -8.859375 C 3.285156 -9.046875 3.625 -9.140625 4.0625 -9.140625 C 4.414062 -9.140625 4.722656 -9.054688 4.984375 -8.890625 C 5.242188 -8.734375 5.425781 -8.519531 5.53125 -8.25 C 5.71875 -8.5625 5.921875 -8.785156 6.140625 -8.921875 C 6.359375 -9.066406 6.664062 -9.140625 7.0625 -9.140625 C 7.769531 -9.140625 8.257812 -8.921875 8.53125 -8.484375 C 8.8125 -8.054688 8.953125 -7.429688 8.953125 -6.609375 L 8.9375 0 L 6.765625 0 L 6.765625 -6.65625 C 6.765625 -7.238281 6.613281 -7.53125 6.3125 -7.53125 C 6.101562 -7.53125 5.953125 -7.425781 5.859375 -7.21875 C 5.773438 -7.019531 5.734375 -6.78125 5.734375 -6.5 L 5.734375 0 L 3.578125 0 L 3.578125 -6.65625 C 3.578125 -6.90625 3.546875 -7.109375 3.484375 -7.265625 C 3.429688 -7.421875 3.320312 -7.5 3.15625 -7.5 C 2.925781 -7.5 2.765625 -7.390625 2.671875 -7.171875 C 2.585938 -6.953125 2.546875 -6.691406 2.546875 -6.390625 L 2.546875 0 L 0.4375 0 Z M 0.4375 -9.046875 "/></g></g></g><g fill="#ffffff" fill-opacity="1"><g transform="translate(58.945247, 35.927085)"><g><path d="M 0.4375 -9.046875 L 2.625 -9.046875 L 2.625 -8.5625 C 2.945312 -8.945312 3.382812 -9.140625 3.9375 -9.140625 C 4.632812 -9.140625 5.117188 -8.90625 5.390625 -8.4375 C 5.671875 -7.96875 5.8125 -7.316406 5.8125 -6.484375 L 5.8125 -3.140625 C 5.8125 -2.429688 5.769531 -1.851562 5.6875 -1.40625 C 5.601562 -0.957031 5.421875 -0.59375 5.140625 -0.3125 C 4.859375 -0.0390625 4.4375 0.09375 3.875 0.09375 C 3.320312 0.09375 2.90625 -0.0546875 2.625 -0.359375 L 2.625 1.796875 L 0.4375 1.796875 Z M 3.15625 -1.578125 C 3.351562 -1.578125 3.476562 -1.664062 3.53125 -1.84375 C 3.59375 -2.03125 3.625 -2.296875 3.625 -2.640625 L 3.625 -6.484375 C 3.625 -6.796875 3.59375 -7.035156 3.53125 -7.203125 C 3.476562 -7.367188 3.347656 -7.453125 3.140625 -7.453125 C 2.796875 -7.453125 2.625 -7.140625 2.625 -6.515625 L 2.625 -2.546875 C 2.625 -2.242188 2.660156 -2.003906 2.734375 -1.828125 C 2.804688 -1.660156 2.945312 -1.578125 3.15625 -1.578125 Z M 3.15625 -1.578125 "/></g></g></g><g fill="#ffffff" fill-opacity="1"><g transform="translate(65.371384, 35.927085)"><g><path d="M 2.078125 0.09375 C 1.378906 0.09375 0.898438 -0.132812 0.640625 -0.59375 C 0.378906 -1.0625 0.25 -1.726562 0.25 -2.59375 C 0.25 -3.300781 0.335938 -3.84375 0.515625 -4.21875 C 0.703125 -4.601562 0.960938 -4.882812 1.296875 -5.0625 C 1.628906 -5.238281 2.132812 -5.429688 2.8125 -5.640625 L 3.40625 -5.84375 L 3.40625 -6.765625 C 3.40625 -7.003906 3.351562 -7.1875 3.25 -7.3125 C 3.15625 -7.445312 3.046875 -7.515625 2.921875 -7.515625 C 2.804688 -7.515625 2.703125 -7.457031 2.609375 -7.34375 C 2.523438 -7.238281 2.484375 -7.097656 2.484375 -6.921875 L 2.484375 -6.375 L 0.390625 -6.375 L 0.390625 -6.671875 C 0.390625 -7.566406 0.59375 -8.203125 1 -8.578125 C 1.414062 -8.953125 2.097656 -9.140625 3.046875 -9.140625 C 3.796875 -9.140625 4.40625 -8.941406 4.875 -8.546875 C 5.34375 -8.160156 5.578125 -7.609375 5.578125 -6.890625 L 5.578125 0 L 3.421875 0 L 3.421875 -1.078125 C 3.316406 -0.703125 3.144531 -0.410156 2.90625 -0.203125 C 2.675781 -0.00390625 2.398438 0.09375 2.078125 0.09375 Z M 2.921875 -1.578125 C 3.085938 -1.578125 3.207031 -1.644531 3.28125 -1.78125 C 3.351562 -1.914062 3.390625 -2.082031 3.390625 -2.28125 L 3.390625 -4.8125 C 3.066406 -4.6875 2.828125 -4.523438 2.671875 -4.328125 C 2.523438 -4.140625 2.453125 -3.878906 2.453125 -3.546875 L 2.453125 -2.390625 C 2.453125 -1.847656 2.609375 -1.578125 2.921875 -1.578125 Z M 2.921875 -1.578125 "/></g></g></g><g fill="#ffffff" fill-opacity="1"><g transform="translate(71.587438, 35.927085)"><g><path d="M 0.4375 -9.046875 L 2.59375 -9.046875 L 2.59375 -7.890625 C 2.6875 -8.265625 2.84375 -8.566406 3.0625 -8.796875 C 3.289062 -9.023438 3.585938 -9.140625 3.953125 -9.140625 C 4.566406 -9.140625 5.019531 -8.953125 5.3125 -8.578125 C 5.601562 -8.203125 5.75 -7.671875 5.75 -6.984375 L 5.75 0 L 3.625 0 L 3.625 -6.765625 C 3.625 -6.960938 3.582031 -7.128906 3.5 -7.265625 C 3.425781 -7.410156 3.304688 -7.484375 3.140625 -7.484375 C 2.921875 -7.484375 2.773438 -7.378906 2.703125 -7.171875 C 2.628906 -6.972656 2.59375 -6.703125 2.59375 -6.359375 L 2.59375 0 L 0.4375 0 Z M 0.4375 -9.046875 "/></g></g></g><g fill="#ffffff" fill-opacity="1"><g transform="translate(78.001214, 35.927085)"><g><path d="M 0.4375 -10.671875 L 2.65625 -10.671875 L 2.65625 -8.15625 C 2.882812 -8.8125 3.328125 -9.140625 3.984375 -9.140625 C 4.585938 -9.140625 5.046875 -8.945312 5.359375 -8.5625 C 5.671875 -8.175781 5.828125 -7.644531 5.828125 -6.96875 L 5.828125 0 L 3.671875 0 L 3.671875 -6.828125 C 3.671875 -7.023438 3.625 -7.1875 3.53125 -7.3125 C 3.445312 -7.4375 3.316406 -7.5 3.140625 -7.5 C 2.992188 -7.5 2.875 -7.4375 2.78125 -7.3125 C 2.695312 -7.1875 2.65625 -7.03125 2.65625 -6.84375 L 2.65625 0 L 0.4375 0 Z M 0.4375 -10.671875 "/></g></g></g><g fill="#ffffff" fill-opacity="1"><g transform="translate(84.489138, 35.927085)"><g><path d="M 2.078125 0.09375 C 1.378906 0.09375 0.898438 -0.132812 0.640625 -0.59375 C 0.378906 -1.0625 0.25 -1.726562 0.25 -2.59375 C 0.25 -3.300781 0.335938 -3.84375 0.515625 -4.21875 C 0.703125 -4.601562 0.960938 -4.882812 1.296875 -5.0625 C 1.628906 -5.238281 2.132812 -5.429688 2.8125 -5.640625 L 3.40625 -5.84375 L 3.40625 -6.765625 C 3.40625 -7.003906 3.351562 -7.1875 3.25 -7.3125 C 3.15625 -7.445312 3.046875 -7.515625 2.921875 -7.515625 C 2.804688 -7.515625 2.703125 -7.457031 2.609375 -7.34375 C 2.523438 -7.238281 2.484375 -7.097656 2.484375 -6.921875 L 2.484375 -6.375 L 0.390625 -6.375 L 0.390625 -6.671875 C 0.390625 -7.566406 0.59375 -8.203125 1 -8.578125 C 1.414062 -8.953125 2.097656 -9.140625 3.046875 -9.140625 C 3.796875 -9.140625 4.40625 -8.941406 4.875 -8.546875 C 5.34375 -8.160156 5.578125 -7.609375 5.578125 -6.890625 L 5.578125 0 L 3.421875 0 L 3.421875 -1.078125 C 3.316406 -0.703125 3.144531 -0.410156 2.90625 -0.203125 C 2.675781 -0.00390625 2.398438 0.09375 2.078125 0.09375 Z M 2.921875 -1.578125 C 3.085938 -1.578125 3.207031 -1.644531 3.28125 -1.78125 C 3.351562 -1.914062 3.390625 -2.082031 3.390625 -2.28125 L 3.390625 -4.8125 C 3.066406 -4.6875 2.828125 -4.523438 2.671875 -4.328125 C 2.523438 -4.140625 2.453125 -3.878906 2.453125 -3.546875 L 2.453125 -2.390625 C 2.453125 -1.847656 2.609375 -1.578125 2.921875 -1.578125 Z M 2.921875 -1.578125 "/></g></g></g><g fill="#ffffff" fill-opacity="1"><g transform="translate(90.705192, 35.927085)"><g><path d="M 0.4375 -9.046875 L 2.59375 -9.046875 L 2.59375 -7.890625 C 2.6875 -8.265625 2.84375 -8.566406 3.0625 -8.796875 C 3.289062 -9.023438 3.585938 -9.140625 3.953125 -9.140625 C 4.566406 -9.140625 5.019531 -8.953125 5.3125 -8.578125 C 5.601562 -8.203125 5.75 -7.671875 5.75 -6.984375 L 5.75 0 L 3.625 0 L 3.625 -6.765625 C 3.625 -6.960938 3.582031 -7.128906 3.5 -7.265625 C 3.425781 -7.410156 3.304688 -7.484375 3.140625 -7.484375 C 2.921875 -7.484375 2.773438 -7.378906 2.703125 -7.171875 C 2.628906 -6.972656 2.59375 -6.703125 2.59375 -6.359375 L 2.59375 0 L 0.4375 0 Z M 0.4375 -9.046875 "/></g></g></g><g fill="#ffffff" fill-opacity="1"><g transform="translate(97.118971, 35.927085)"><g><path d="M 2.296875 0.09375 C 1.734375 0.09375 1.34375 -0.0234375 1.125 -0.265625 C 0.90625 -0.503906 0.796875 -0.882812 0.796875 -1.40625 L 0.796875 -7.0625 L 0.203125 -7.0625 L 0.203125 -8.703125 L 0.796875 -8.703125 L 0.796875 -10.609375 L 2.90625 -10.609375 L 2.90625 -8.703125 L 3.515625 -8.703125 L 3.515625 -7.0625 L 2.90625 -7.0625 L 2.90625 -1.984375 C 2.90625 -1.828125 2.914062 -1.707031 2.9375 -1.625 C 2.96875 -1.550781 3.035156 -1.515625 3.140625 -1.515625 C 3.222656 -1.515625 3.300781 -1.519531 3.375 -1.53125 C 3.445312 -1.539062 3.492188 -1.546875 3.515625 -1.546875 L 3.515625 -0.0625 C 3.398438 -0.03125 3.222656 0 2.984375 0.03125 C 2.742188 0.0703125 2.515625 0.09375 2.296875 0.09375 Z M 2.296875 0.09375 "/></g></g></g><g fill="#ffffff" fill-opacity="1"><g transform="translate(101.135321, 35.927085)"><g><path d="M 2.96875 0.09375 C 2.03125 0.09375 1.359375 -0.160156 0.953125 -0.671875 C 0.554688 -1.179688 0.359375 -1.941406 0.359375 -2.953125 L 0.359375 -6.59375 C 0.359375 -7.414062 0.597656 -8.046875 1.078125 -8.484375 C 1.554688 -8.921875 2.222656 -9.140625 3.078125 -9.140625 C 4.816406 -9.140625 5.6875 -8.289062 5.6875 -6.59375 L 5.6875 -5.9375 C 5.6875 -5.269531 5.675781 -4.734375 5.65625 -4.328125 L 2.515625 -4.328125 L 2.515625 -2.578125 C 2.515625 -2.253906 2.546875 -2.003906 2.609375 -1.828125 C 2.679688 -1.648438 2.828125 -1.5625 3.046875 -1.5625 C 3.203125 -1.5625 3.316406 -1.609375 3.390625 -1.703125 C 3.460938 -1.804688 3.503906 -1.921875 3.515625 -2.046875 C 3.523438 -2.179688 3.53125 -2.375 3.53125 -2.625 L 3.53125 -3.5 L 5.6875 -3.5 L 5.6875 -2.984375 C 5.6875 -1.921875 5.484375 -1.140625 5.078125 -0.640625 C 4.671875 -0.148438 3.96875 0.09375 2.96875 0.09375 Z M 3.53125 -5.40625 L 3.53125 -6.5625 C 3.53125 -7.21875 3.367188 -7.546875 3.046875 -7.546875 C 2.691406 -7.546875 2.515625 -7.21875 2.515625 -6.5625 L 2.515625 -5.40625 Z M 3.53125 -5.40625 "/></g></g></g></svg>