<svg xmlns="http://www.w3.org/2000/svg" xmlns:xlink="http://www.w3.org/1999/xlink" width="200" zoomAndPan="magnify" viewBox="0 0 150 74.999997" height="100" preserveAspectRatio="xMidYMid meet" version="1.0"><defs><g/><clipPath id="3e8e1ed1a1"><path d="M 28 2.992188 L 39 2.992188 L 39 18 L 28 18 Z M 28 2.992188 " clip-rule="nonzero"/></clipPath><clipPath id="2df1959e18"><path d="M 6 10 L 64.261719 10 L 64.261719 71.914062 L 6 71.914062 Z M 6 10 " clip-rule="nonzero"/></clipPath></defs><g clip-path="url(#3e8e1ed1a1)"><path fill="#1c486f" d="M 38.28125 2.996094 L 38.28125 10.890625 C 34.386719 12.21875 30.949219 14.53125 28.269531 17.53125 L 28.269531 2.996094 L 38.28125 2.996094 " fill-opacity="1" fill-rule="nonzero"/></g><path fill="#1c486f" d="M 22.066406 27.820312 L 22.886719 27.820312 C 23.808594 23.933594 25.691406 20.414062 28.269531 17.53125 L 21.523438 17.53125 C 22.972656 18.890625 23.875 20.820312 23.875 22.957031 C 23.875 24.816406 23.195312 26.515625 22.066406 27.820312 " fill-opacity="1" fill-rule="nonzero"/><g clip-path="url(#2df1959e18)"><path fill="#ffbd59" d="M 16.429688 28.496094 C 13.378906 28.496094 10.894531 26.011719 10.894531 22.957031 C 10.894531 19.90625 13.378906 17.421875 16.429688 17.421875 C 19.480469 17.421875 21.964844 19.90625 21.964844 22.957031 C 21.964844 26.011719 19.480469 28.496094 16.429688 28.496094 Z M 30.566406 70.742188 C 33.0625 69.632812 34.792969 67.789062 35.578125 65.402344 C 36.46875 62.691406 36.195312 59.683594 34.804688 56.929688 C 34.105469 55.550781 33.21875 54.28125 32.292969 52.996094 C 31.390625 51.742188 30.417969 50.457031 29.410156 49.183594 C 29.371094 49.136719 29.328125 49.101562 29.277344 49.070312 C 26.707031 45.226562 25.351562 40.742188 25.351562 36.097656 C 25.351562 33.359375 25.820312 30.679688 26.742188 28.128906 L 27.960938 28.128906 L 27.960938 42.664062 L 38.585938 42.664062 L 38.585938 28.128906 L 53.886719 28.128906 L 53.886719 17.222656 L 38.585938 17.222656 L 38.585938 15.03125 C 41.757812 13.5 45.167969 12.726562 48.71875 12.726562 C 54.242188 12.726562 59.601562 14.6875 63.808594 18.25 L 64.246094 17.820312 C 64.03125 17.566406 63.804688 17.3125 63.574219 17.058594 L 63.554688 17.039062 C 59.117188 12.960938 53.355469 10.714844 47.324219 10.714844 C 44.148438 10.714844 41.066406 11.324219 38.160156 12.527344 C 34.917969 13.867188 31.949219 15.957031 29.574219 18.566406 C 27.191406 21.1875 25.390625 24.359375 24.367188 27.734375 C 23.683594 29.980469 23.335938 32.324219 23.335938 34.699219 C 23.335938 40.476562 25.421875 46.054688 29.203125 50.414062 C 30.1875 51.675781 31.121094 52.929688 31.972656 54.132812 C 32.96875 55.542969 33.746094 56.75 34.324219 58.074219 C 35.621094 61.050781 35.425781 64.554688 33.828125 67.011719 C 32.671875 68.789062 30.425781 70.144531 27.816406 70.640625 C 25.429688 71.097656 22.59375 70.882812 20.039062 70.058594 C 14.285156 68.203125 11.042969 62.3125 9.621094 58.964844 C 7.460938 53.878906 6.632812 48.011719 7.230469 42 C 7.628906 38.035156 8.945312 32.519531 12.96875 28.652344 C 13.980469 29.265625 15.164062 29.621094 16.429688 29.621094 C 20.105469 29.621094 23.09375 26.632812 23.09375 22.957031 C 23.09375 19.285156 20.105469 16.296875 16.429688 16.296875 C 12.753906 16.296875 9.765625 19.285156 9.765625 22.957031 C 9.765625 25.03125 10.714844 26.882812 12.203125 28.105469 C 11.800781 28.5 11.421875 28.90625 11.078125 29.316406 C 8.089844 32.886719 6.390625 38.003906 6.164062 44.117188 C 5.921875 50.640625 7.242188 56.773438 9.984375 61.851562 C 11.40625 64.488281 13.132812 66.671875 15.113281 68.339844 C 17.183594 70.082031 19.695312 71.171875 22.574219 71.574219 C 25.664062 72.003906 28.355469 71.722656 30.566406 70.742188 " fill-opacity="1" fill-rule="nonzero"/></g><path fill="#1c486f" d="M 16.429688 27.203125 C 18.773438 27.203125 20.675781 25.304688 20.675781 22.957031 C 20.675781 20.613281 18.773438 18.714844 16.429688 18.714844 C 14.085938 18.714844 12.183594 20.613281 12.183594 22.957031 C 12.183594 25.304688 14.085938 27.203125 16.429688 27.203125 " fill-opacity="1" fill-rule="nonzero"/><path stroke-linecap="butt" transform="matrix(0.202782, 0, 0, 0.202782, 54.826566, 14.954191)" fill="none" stroke-linejoin="miter" d="M 2.839396 80.996951 L 2.839396 17.158349 L 22.295336 17.158349 L 27.650536 56.108757 L 33.005735 17.158349 L 52.615782 17.158349 L 52.615782 80.996951 L 40.961481 80.996951 L 40.961481 34.996172 L 33.583634 80.996951 L 22.160493 80.996951 L 14.358854 34.996172 L 14.358854 80.996951 Z M 74.768586 81.594113 C 69.162964 81.594113 65.136932 80.053049 62.709755 76.990183 C 60.301842 73.908053 59.088254 69.34265 59.088254 63.236181 L 59.088254 41.39159 C 59.088254 36.38313 60.513738 32.568995 63.383971 29.949186 C 66.254204 27.310113 70.280235 26.000208 75.423538 26.000208 C 85.883514 26.000208 91.103871 31.124247 91.103871 41.39159 L 91.103871 45.321305 C 91.103871 49.289546 91.065344 52.506519 90.969028 54.972222 L 72.090986 54.972222 L 72.090986 65.547778 C 72.090986 67.435582 72.283619 68.899594 72.668885 69.959075 C 73.073415 71.037821 73.921 71.55793 75.211642 71.55793 C 76.213334 71.55793 76.906813 71.26898 77.311343 70.671818 C 77.735135 70.074655 77.985558 69.40044 78.062612 68.649171 C 78.139665 67.878638 78.178191 66.742103 78.178191 65.258828 L 78.178191 59.961419 L 91.103871 59.961419 L 91.103871 63.082075 C 91.103871 69.438966 89.871019 74.100687 87.424579 77.105763 C 84.978139 80.091575 80.759475 81.594113 74.768586 81.594113 Z M 78.178191 48.519014 L 78.178191 41.526433 C 78.178191 37.615982 77.215026 35.651125 75.288695 35.651125 C 73.092678 35.651125 71.99467 37.615982 71.99467 41.526433 L 71.99467 48.519014 Z M 107.747369 81.594113 C 103.682811 81.594113 100.908894 80.380525 99.387093 77.953348 C 97.884555 75.526171 97.133286 71.904669 97.133286 67.108106 L 97.133286 26.59737 L 110.213072 26.59737 L 110.213072 64.507559 C 110.213072 64.854299 110.213072 65.778938 110.213072 67.281476 C 110.213072 68.803277 110.444232 69.862759 110.906551 70.498448 C 111.388134 71.114874 112.120139 71.423087 113.102568 71.423087 C 114.431736 71.423087 115.279322 70.864451 115.626061 69.747179 C 115.972801 68.629907 116.165434 67.031053 116.165434 64.950615 L 116.165434 64.507559 L 116.223224 26.59737 L 129.168166 26.59737 L 129.168166 80.996951 L 116.165434 80.996951 L 116.165434 75.217958 C 115.260058 77.491029 114.21984 79.12841 113.025515 80.110838 C 111.83119 81.093267 110.078229 81.594113 107.747369 81.594113 Z M 107.747369 81.594113 " stroke="#1c486f" stroke-width="19.510391" stroke-opacity="1" stroke-miterlimit="4"/><g fill="#ffffff" fill-opacity="1"><g transform="translate(54.826566, 31.379525)"><g><path d="M 0.578125 0 L 0.578125 -12.953125 L 4.515625 -12.953125 L 5.609375 -5.046875 L 6.6875 -12.953125 L 10.671875 -12.953125 L 10.671875 0 L 8.3125 0 L 8.3125 -9.328125 L 6.8125 0 L 4.5 0 L 2.90625 -9.328125 L 2.90625 0 Z M 0.578125 0 "/></g></g></g><g fill="#ffffff" fill-opacity="1"><g transform="translate(66.36964, 31.379525)"><g><path d="M 3.625 0.125 C 2.488281 0.125 1.671875 -0.1875 1.171875 -0.8125 C 0.679688 -1.4375 0.4375 -2.367188 0.4375 -3.609375 L 0.4375 -8.03125 C 0.4375 -9.050781 0.726562 -9.828125 1.3125 -10.359375 C 1.894531 -10.890625 2.707031 -11.15625 3.75 -11.15625 C 5.875 -11.15625 6.9375 -10.113281 6.9375 -8.03125 L 6.9375 -7.234375 C 6.9375 -6.429688 6.925781 -5.78125 6.90625 -5.28125 L 3.078125 -5.28125 L 3.078125 -3.140625 C 3.078125 -2.753906 3.113281 -2.453125 3.1875 -2.234375 C 3.269531 -2.023438 3.441406 -1.921875 3.703125 -1.921875 C 3.910156 -1.921875 4.054688 -1.976562 4.140625 -2.09375 C 4.222656 -2.21875 4.269531 -2.359375 4.28125 -2.515625 C 4.300781 -2.671875 4.3125 -2.898438 4.3125 -3.203125 L 4.3125 -4.265625 L 6.9375 -4.265625 L 6.9375 -3.640625 C 6.9375 -2.347656 6.6875 -1.394531 6.1875 -0.78125 C 5.6875 -0.175781 4.832031 0.125 3.625 0.125 Z M 4.3125 -6.59375 L 4.3125 -8 C 4.3125 -8.800781 4.113281 -9.203125 3.71875 -9.203125 C 3.28125 -9.203125 3.0625 -8.800781 3.0625 -8 L 3.0625 -6.59375 Z M 4.3125 -6.59375 "/></g></g></g><g fill="#ffffff" fill-opacity="1"><g transform="translate(74.024857, 31.379525)"><g><path d="M 2.65625 0.125 C 1.832031 0.125 1.265625 -0.117188 0.953125 -0.609375 C 0.648438 -1.109375 0.5 -1.84375 0.5 -2.8125 L 0.5 -11.03125 L 3.15625 -11.03125 L 3.15625 -3.34375 C 3.15625 -3.269531 3.15625 -3.082031 3.15625 -2.78125 C 3.15625 -2.476562 3.203125 -2.257812 3.296875 -2.125 C 3.390625 -2 3.535156 -1.9375 3.734375 -1.9375 C 4.003906 -1.9375 4.175781 -2.050781 4.25 -2.28125 C 4.320312 -2.507812 4.359375 -2.832031 4.359375 -3.25 L 4.359375 -3.34375 L 4.375 -11.03125 L 7 -11.03125 L 7 0 L 4.359375 0 L 4.359375 -1.171875 C 4.179688 -0.710938 3.96875 -0.378906 3.71875 -0.171875 C 3.476562 0.0234375 3.125 0.125 2.65625 0.125 Z M 2.65625 0.125 "/></g></g></g><path stroke-linecap="butt" transform="matrix(0.202782, 0, 0, 0.202782, 69.780957, 41.181017)" fill="none" stroke-linejoin="miter" d="M 21.807508 101.742233 C 8.438772 101.742233 1.754404 94.980812 1.754404 81.438707 L 1.850721 76.064244 L 18.012636 76.064244 L 18.108953 84.000727 C 18.108953 85.618845 18.417165 86.832433 19.033591 87.660755 C 19.650017 88.489077 20.651709 88.893607 22.077194 88.893607 C 24.215421 88.893607 25.294166 87.140646 25.294166 83.634724 C 25.294166 81.053441 24.774057 79.030793 23.753102 77.547519 C 22.75141 76.064244 21.152555 74.503916 18.937275 72.847272 L 10.34584 66.201431 C 7.37929 63.909097 5.260326 61.558973 3.969685 59.131797 C 2.679043 56.70462 2.024091 53.275751 2.024091 48.825927 C 2.024091 45.377795 2.929466 42.430509 4.75948 40.022596 C 6.570231 37.576156 8.978145 35.746141 12.002484 34.51329 C 15.00756 33.280438 18.378639 32.664012 22.077194 32.664012 C 35.176243 32.664012 41.725768 39.194273 41.725768 52.235533 L 41.725768 53.545437 L 25.02448 53.545437 L 25.02448 50.944891 C 25.02448 49.346036 24.754794 47.978342 24.234684 46.841806 C 23.714575 45.705271 22.828463 45.127372 21.595611 45.127372 C 20.497603 45.127372 19.650017 45.454848 19.072118 46.109801 C 18.494219 46.74549 18.186006 47.631602 18.186006 48.748874 C 18.186006 51.214577 19.149171 53.121645 21.056239 54.470076 L 31.015369 61.751607 C 34.598344 64.39068 37.333733 67.280176 39.240801 70.381568 C 41.167132 73.502224 42.111034 77.412676 42.111034 82.151449 C 42.111034 88.431287 40.319546 93.266378 36.755834 96.675983 C 33.192122 100.047062 28.202926 101.742233 21.807508 101.742233 Z M 67.866076 101.742233 C 60.912022 101.742233 55.922825 99.835166 52.898486 96.021031 C 49.89341 92.206896 48.390872 86.504957 48.390872 78.934477 L 48.390872 51.792477 C 48.390872 45.570428 50.163096 40.831655 53.726808 37.556892 C 57.309783 34.301393 62.29898 32.664012 68.694398 32.664012 C 81.677867 32.664012 88.169602 39.040167 88.169602 51.792477 L 88.169602 56.685357 C 88.169602 61.616763 88.111812 65.604268 87.996232 68.667134 L 64.552787 68.667134 L 64.552787 81.785446 C 64.552787 84.13557 64.783947 85.965584 65.265529 87.294752 C 65.766375 88.623921 66.825857 89.278873 68.424712 89.278873 C 69.657563 89.278873 70.524412 88.91287 71.044522 88.180864 C 71.564631 87.429595 71.872844 86.601273 71.96916 85.638108 C 72.065477 84.694206 72.104004 83.287984 72.104004 81.438707 L 72.104004 74.869919 L 88.169602 74.869919 L 88.169602 78.741844 C 88.169602 86.620537 86.647801 92.418792 83.604198 96.155874 C 80.560596 99.873692 75.320976 101.742233 67.866076 101.742233 Z M 72.104004 60.653598 L 72.104004 51.965846 C 72.104004 47.092229 70.909678 44.665053 68.521028 44.665053 C 65.804902 44.665053 64.437207 47.092229 64.437207 51.965846 L 64.437207 60.653598 Z M 114.020961 110.873041 C 109.224397 110.873041 105.448789 110.487775 102.713399 109.717242 C 99.97801 108.965973 97.281146 107.501962 94.642073 105.344471 L 100.189906 96.021031 C 104.119621 98.351891 108.030072 99.507689 111.901997 99.507689 C 114.42549 99.507689 116.332558 98.717894 117.623199 97.119039 C 118.913841 95.520185 119.568793 93.324168 119.568793 90.569515 L 119.568793 86.87096 C 118.278152 91.494153 114.849283 93.80575 109.30145 93.80575 C 104.69752 93.80575 101.287914 92.245422 99.091897 89.105503 C 96.915144 85.946321 95.836398 81.766183 95.836398 76.545827 L 95.836398 51.137524 C 95.836398 45.165899 96.83809 40.600495 98.822211 37.422049 C 100.844858 34.262867 104.331517 32.664012 109.30145 32.664012 C 112.21021 32.664012 114.502543 33.396018 116.178451 34.840766 C 117.892886 36.285514 119.010157 38.327425 119.568793 40.985761 L 119.568793 33.415281 L 136.096711 33.415281 L 136.096711 89.548559 C 136.096711 97.119039 134.34375 102.570555 130.818565 105.883844 C 127.312643 109.216396 121.726284 110.873041 114.020961 110.873041 Z M 115.773922 81.612077 C 118.297415 81.612077 119.568793 79.339006 119.568793 74.773602 L 119.568793 50.675205 C 119.568793 49.326773 119.20279 48.036132 118.470785 46.80328 C 117.719516 45.570428 116.794877 44.954002 115.696869 44.954002 C 114.271384 44.954002 113.327482 45.474112 112.826636 46.495067 C 112.32579 47.496759 112.075367 48.90298 112.075367 50.675205 L 112.075367 74.773602 C 112.075367 76.815513 112.32579 78.452894 112.826636 79.724272 C 113.327482 80.976387 114.30991 81.612077 115.773922 81.612077 Z M 157.247823 101.742233 C 152.181573 101.742233 148.733441 100.239695 146.845637 97.215356 C 144.977096 94.191016 144.033194 89.702666 144.033194 83.73104 L 144.033194 33.415281 L 160.291425 33.415281 L 160.291425 80.514068 C 160.291425 80.937861 160.291425 82.074396 160.291425 83.9622 C 160.291425 85.830741 160.580375 87.159909 161.158274 87.949705 C 161.755437 88.720237 162.660812 89.105503 163.893664 89.105503 C 165.550308 89.105503 166.590527 88.412024 167.033583 87.025066 C 167.457376 85.618845 167.669272 83.634724 167.669272 81.053441 L 167.669272 80.514068 L 167.765589 33.415281 L 183.850451 33.415281 L 183.850451 100.990964 L 167.669272 100.990964 L 167.669272 93.80575 C 166.571264 96.637456 165.261359 98.660104 163.778084 99.892955 C 162.314073 101.125807 160.118056 101.742233 157.247823 101.742233 Z M 192.133673 33.415281 L 208.295588 33.415281 L 208.295588 40.889444 C 209.085383 38.231108 210.491605 36.189197 212.494989 34.744449 C 214.498373 33.299701 216.98334 32.586959 219.930626 32.586959 L 219.930626 46.052011 C 217.657555 46.052011 215.153325 46.379487 212.398672 47.03444 C 209.663283 47.670129 208.295588 48.421398 208.295588 49.288247 L 208.295588 100.990964 L 192.133673 100.990964 Z M 245.415981 101.742233 C 231.931666 101.742233 225.189509 94.749652 225.189509 80.783754 L 225.189509 53.641754 C 225.189509 47.227073 227.000259 42.141559 230.583235 38.346688 C 234.185473 34.57108 239.136143 32.664012 245.415981 32.664012 C 251.69582 32.664012 256.627226 34.57108 260.229465 38.346688 C 263.831703 42.141559 265.642454 47.227073 265.642454 53.641754 L 265.642454 80.783754 C 265.642454 94.749652 258.900297 101.742233 245.415981 101.742233 Z M 245.415981 89.278873 C 246.706623 89.278873 247.669788 88.816554 248.286214 87.911178 C 248.90264 86.967276 249.210853 85.695898 249.210853 84.097043 L 249.210853 51.041208 C 249.210853 47.111493 247.939475 45.127372 245.415981 45.127372 C 242.892488 45.127372 241.62111 47.111493 241.62111 51.041208 L 241.62111 84.097043 C 241.62111 85.695898 241.929323 86.967276 242.545749 87.911178 C 243.162174 88.816554 244.12534 89.278873 245.415981 89.278873 Z M 245.415981 89.278873 " stroke="#1c486f" stroke-width="24.240038" stroke-opacity="1" stroke-miterlimit="4"/><g fill="#ffbd59" fill-opacity="1"><g transform="translate(69.780957, 61.661989)"><g><path d="M 4.421875 0.15625 C 1.710938 0.15625 0.359375 -1.21875 0.359375 -3.96875 L 0.375 -5.046875 L 3.65625 -5.046875 L 3.671875 -3.4375 C 3.671875 -3.113281 3.734375 -2.867188 3.859375 -2.703125 C 3.984375 -2.535156 4.1875 -2.453125 4.46875 -2.453125 C 4.90625 -2.453125 5.125 -2.804688 5.125 -3.515625 C 5.125 -4.046875 5.019531 -4.457031 4.8125 -4.75 C 4.613281 -5.050781 4.289062 -5.367188 3.84375 -5.703125 L 2.09375 -7.0625 C 1.5 -7.519531 1.066406 -7.992188 0.796875 -8.484375 C 0.535156 -8.984375 0.40625 -9.679688 0.40625 -10.578125 C 0.40625 -11.273438 0.585938 -11.867188 0.953125 -12.359375 C 1.328125 -12.859375 1.816406 -13.234375 2.421875 -13.484375 C 3.035156 -13.734375 3.71875 -13.859375 4.46875 -13.859375 C 7.125 -13.859375 8.453125 -12.535156 8.453125 -9.890625 L 8.453125 -9.625 L 5.078125 -9.625 L 5.078125 -10.140625 C 5.078125 -10.460938 5.019531 -10.738281 4.90625 -10.96875 C 4.800781 -11.207031 4.625 -11.328125 4.375 -11.328125 C 4.15625 -11.328125 3.984375 -11.257812 3.859375 -11.125 C 3.742188 -11 3.6875 -10.820312 3.6875 -10.59375 C 3.6875 -10.09375 3.878906 -9.707031 4.265625 -9.4375 L 6.296875 -7.953125 C 7.015625 -7.421875 7.566406 -6.835938 7.953125 -6.203125 C 8.335938 -5.578125 8.53125 -4.78125 8.53125 -3.8125 C 8.53125 -2.539062 8.164062 -1.5625 7.4375 -0.875 C 6.71875 -0.1875 5.710938 0.15625 4.421875 0.15625 Z M 4.421875 0.15625 "/></g></g></g><g fill="#ffbd59" fill-opacity="1"><g transform="translate(79.048636, 61.661989)"><g><path d="M 4.5 0.15625 C 3.082031 0.15625 2.066406 -0.226562 1.453125 -1 C 0.847656 -1.78125 0.546875 -2.9375 0.546875 -4.46875 L 0.546875 -9.984375 C 0.546875 -11.242188 0.90625 -12.203125 1.625 -12.859375 C 2.351562 -13.523438 3.363281 -13.859375 4.65625 -13.859375 C 7.289062 -13.859375 8.609375 -12.566406 8.609375 -9.984375 L 8.609375 -8.984375 C 8.609375 -7.984375 8.597656 -7.171875 8.578125 -6.546875 L 3.8125 -6.546875 L 3.8125 -3.890625 C 3.8125 -3.421875 3.863281 -3.050781 3.96875 -2.78125 C 4.070312 -2.507812 4.285156 -2.375 4.609375 -2.375 C 4.859375 -2.375 5.035156 -2.445312 5.140625 -2.59375 C 5.242188 -2.75 5.304688 -2.921875 5.328125 -3.109375 C 5.347656 -3.304688 5.359375 -3.59375 5.359375 -3.96875 L 5.359375 -5.296875 L 8.609375 -5.296875 L 8.609375 -4.515625 C 8.609375 -2.910156 8.296875 -1.726562 7.671875 -0.96875 C 7.054688 -0.21875 6 0.15625 4.5 0.15625 Z M 5.359375 -8.1875 L 5.359375 -9.9375 C 5.359375 -10.925781 5.113281 -11.421875 4.625 -11.421875 C 4.070312 -11.421875 3.796875 -10.925781 3.796875 -9.9375 L 3.796875 -8.1875 Z M 5.359375 -8.1875 "/></g></g></g><g fill="#ffbd59" fill-opacity="1"><g transform="translate(88.559708, 61.661989)"><g><path d="M 4.34375 2 C 3.363281 2 2.597656 1.921875 2.046875 1.765625 C 1.492188 1.609375 0.945312 1.3125 0.40625 0.875 L 1.53125 -1.015625 C 2.332031 -0.535156 3.125 -0.296875 3.90625 -0.296875 C 4.414062 -0.296875 4.800781 -0.457031 5.0625 -0.78125 C 5.332031 -1.101562 5.46875 -1.546875 5.46875 -2.109375 L 5.46875 -2.859375 C 5.207031 -1.921875 4.515625 -1.453125 3.390625 -1.453125 C 2.453125 -1.453125 1.757812 -1.769531 1.3125 -2.40625 C 0.875 -3.050781 0.65625 -3.898438 0.65625 -4.953125 L 0.65625 -10.109375 C 0.65625 -11.316406 0.859375 -12.242188 1.265625 -12.890625 C 1.671875 -13.535156 2.378906 -13.859375 3.390625 -13.859375 C 3.972656 -13.859375 4.4375 -13.707031 4.78125 -13.40625 C 5.125 -13.113281 5.351562 -12.703125 5.46875 -12.171875 L 5.46875 -13.703125 L 8.8125 -13.703125 L 8.8125 -2.328125 C 8.8125 -0.785156 8.457031 0.316406 7.75 0.984375 C 7.039062 1.660156 5.90625 2 4.34375 2 Z M 4.703125 -3.9375 C 5.210938 -3.9375 5.46875 -4.394531 5.46875 -5.3125 L 5.46875 -10.203125 C 5.46875 -10.472656 5.390625 -10.734375 5.234375 -10.984375 C 5.085938 -11.234375 4.898438 -11.359375 4.671875 -11.359375 C 4.390625 -11.359375 4.195312 -11.253906 4.09375 -11.046875 C 4 -10.847656 3.953125 -10.566406 3.953125 -10.203125 L 3.953125 -5.3125 C 3.953125 -4.90625 4 -4.570312 4.09375 -4.3125 C 4.195312 -4.0625 4.398438 -3.9375 4.703125 -3.9375 Z M 4.703125 -3.9375 "/></g></g></g><g fill="#ffbd59" fill-opacity="1"><g transform="translate(98.370339, 61.661989)"><g><path d="M 3.296875 0.15625 C 2.273438 0.15625 1.570312 -0.148438 1.1875 -0.765625 C 0.8125 -1.378906 0.625 -2.289062 0.625 -3.5 L 0.625 -13.703125 L 3.90625 -13.703125 L 3.90625 -4.15625 C 3.90625 -4.070312 3.90625 -3.835938 3.90625 -3.453125 C 3.90625 -3.066406 3.960938 -2.796875 4.078125 -2.640625 C 4.203125 -2.492188 4.390625 -2.421875 4.640625 -2.421875 C 4.972656 -2.421875 5.179688 -2.554688 5.265625 -2.828125 C 5.359375 -3.109375 5.40625 -3.515625 5.40625 -4.046875 L 5.40625 -4.15625 L 5.421875 -13.703125 L 8.6875 -13.703125 L 8.6875 0 L 5.40625 0 L 5.40625 -1.453125 C 5.1875 -0.878906 4.925781 -0.46875 4.625 -0.21875 C 4.320312 0.03125 3.878906 0.15625 3.296875 0.15625 Z M 3.296875 0.15625 "/></g></g></g><g fill="#ffbd59" fill-opacity="1"><g transform="translate(108.087357, 61.661989)"><g><path d="M 0.65625 -13.703125 L 3.9375 -13.703125 L 3.9375 -12.1875 C 4.09375 -12.71875 4.375 -13.128906 4.78125 -13.421875 C 5.1875 -13.722656 5.691406 -13.875 6.296875 -13.875 L 6.296875 -11.140625 C 5.828125 -11.140625 5.316406 -11.070312 4.765625 -10.9375 C 4.210938 -10.8125 3.9375 -10.660156 3.9375 -10.484375 L 3.9375 0 L 0.65625 0 Z M 0.65625 -13.703125 "/></g></g></g><g fill="#ffbd59" fill-opacity="1"><g transform="translate(114.902395, 61.661989)"><g><path d="M 4.640625 0.15625 C 1.910156 0.15625 0.546875 -1.257812 0.546875 -4.09375 L 0.546875 -9.609375 C 0.546875 -10.898438 0.910156 -11.929688 1.640625 -12.703125 C 2.367188 -13.472656 3.367188 -13.859375 4.640625 -13.859375 C 5.910156 -13.859375 6.910156 -13.472656 7.640625 -12.703125 C 8.367188 -11.929688 8.734375 -10.898438 8.734375 -9.609375 L 8.734375 -4.09375 C 8.734375 -1.257812 7.367188 0.15625 4.640625 0.15625 Z M 4.640625 -2.375 C 4.898438 -2.375 5.09375 -2.46875 5.21875 -2.65625 C 5.34375 -2.84375 5.40625 -3.097656 5.40625 -3.421875 L 5.40625 -10.125 C 5.40625 -10.925781 5.148438 -11.328125 4.640625 -11.328125 C 4.128906 -11.328125 3.875 -10.925781 3.875 -10.125 L 3.875 -3.421875 C 3.875 -3.097656 3.9375 -2.84375 4.0625 -2.65625 C 4.1875 -2.46875 4.378906 -2.375 4.640625 -2.375 Z M 4.640625 -2.375 "/></g></g></g><path stroke-linecap="butt" transform="matrix(0.202782, 0, 0, 0.202782, 42.977032, 28.302162)" fill="none" stroke-linejoin="miter" d="M 1.114955 80.995398 L 7.279214 17.17606 L 28.911908 17.17606 L 34.999113 80.995398 L 22.901756 80.995398 L 21.99638 70.670265 L 14.252531 70.670265 L 13.520525 80.995398 Z M 15.23496 60.499239 L 21.033215 60.499239 L 18.220772 28.021302 L 17.62361 28.021302 Z M 56.477701 81.59256 C 50.525339 81.59256 46.248885 80.090022 43.629075 77.065683 C 41.009265 74.041344 39.680097 69.398887 39.680097 63.157575 L 39.680097 46.359971 C 39.680097 41.659724 40.200206 37.826326 41.201898 34.898303 C 42.222853 31.951017 43.937288 29.716473 46.325938 28.233198 C 48.733851 26.749924 52.066404 25.998655 56.323595 25.998655 C 60.985315 25.998655 64.780187 27.212243 67.708209 29.658683 C 70.636232 32.066597 72.100243 35.456939 72.100243 39.82971 L 72.100243 48.151458 L 58.866351 48.151458 L 58.866351 40.503925 C 58.866351 39.059177 58.673718 37.961169 58.269189 37.190636 C 57.864659 36.420104 57.094127 36.034838 55.957592 36.034838 C 53.838628 36.034838 52.759883 37.556639 52.759883 40.580979 L 52.759883 66.952447 C 52.759883 68.185298 53.029569 69.24478 53.549678 70.111629 C 54.069788 70.978478 54.859583 71.421534 55.899802 71.421534 C 56.94002 71.421534 57.710553 70.997741 58.230662 70.150156 C 58.750771 69.30257 58.981931 68.204562 58.943404 66.875393 L 58.866351 57.744586 L 72.100243 57.744586 L 72.100243 67.241396 C 72.100243 71.710484 70.636232 75.216405 67.746736 77.778425 C 64.837976 80.321182 61.081631 81.59256 56.477701 81.59256 Z M 93.944834 81.59256 C 83.080329 81.59256 77.667339 75.967674 77.667339 64.717903 L 77.667339 42.873312 C 77.667339 37.730009 79.112087 33.626925 82.001583 30.583322 C 84.910343 27.520456 88.878584 25.998655 93.944834 25.998655 C 98.991821 25.998655 102.960062 27.520456 105.849558 30.583322 C 108.758318 33.626925 110.203066 37.730009 110.203066 42.873312 L 110.203066 64.717903 C 110.203066 75.967674 104.790076 81.59256 93.944834 81.59256 Z M 93.944834 71.556377 C 94.985053 71.556377 95.736322 71.190374 96.237168 70.458369 C 96.738014 69.7071 96.988437 68.686144 96.988437 67.395503 L 96.988437 40.792875 C 96.988437 37.614429 95.967481 36.034838 93.944834 36.034838 C 91.902924 36.034838 90.881968 37.614429 90.881968 40.792875 L 90.881968 67.395503 C 90.881968 68.686144 91.132391 69.7071 91.633237 70.458369 C 92.134083 71.190374 92.904616 71.556377 93.944834 71.556377 Z M 116.521431 26.595817 L 129.235214 26.595817 L 129.235214 32.914182 C 129.832376 30.583322 130.834068 28.849624 132.259553 27.713089 C 133.704301 26.576554 135.746212 25.998655 138.385285 25.998655 C 140.504248 25.998655 142.353526 26.480237 143.913854 27.462666 C 145.474182 28.425831 146.57219 29.755 147.207879 31.430907 C 148.305888 29.543103 149.519476 28.175408 150.848645 27.30856 C 152.197076 26.441711 154.046354 25.998655 156.435004 25.998655 C 160.692195 25.998655 163.658744 27.30856 165.315389 29.909106 C 166.972033 32.509653 167.819619 36.285261 167.819619 41.235931 L 167.646249 80.995398 L 154.585726 80.995398 L 154.585726 41.004771 C 154.585726 37.498849 153.680351 35.745888 151.888863 35.745888 C 150.656012 35.745888 149.769899 36.343051 149.230527 37.556639 C 148.691154 38.770228 148.421468 40.214976 148.421468 41.910147 L 148.421468 80.995398 L 135.399472 80.995398 L 135.399472 41.004771 C 135.399472 39.463707 135.245366 38.230855 134.917889 37.306216 C 134.590413 36.362314 133.896934 35.899995 132.856715 35.899995 C 131.527547 35.899995 130.602908 36.554947 130.044272 37.864852 C 129.5049 39.174757 129.235214 40.735085 129.235214 42.565099 L 129.235214 80.995398 L 116.521431 80.995398 Z M 174.330617 26.595817 L 187.564509 26.595817 L 187.564509 29.485313 C 189.452313 27.173716 192.052859 25.998655 195.385412 25.998655 C 199.584813 25.998655 202.512835 27.424139 204.188743 30.255846 C 205.845388 33.068289 206.67371 36.97874 206.67371 41.9872 L 206.67371 62.13662 C 206.67371 66.393811 206.423287 69.861206 205.922441 72.558069 C 205.421595 75.254932 204.34285 77.450949 202.647679 79.107594 C 200.971771 80.764238 198.429014 81.59256 195.000146 81.59256 C 191.725383 81.59256 189.25968 80.687185 187.564509 78.837907 L 187.564509 91.859903 L 174.330617 91.859903 Z M 190.685165 71.498587 C 191.87949 71.498587 192.650022 70.939951 192.977498 69.861206 C 193.343501 68.763197 193.516871 67.164343 193.516871 65.083906 L 193.516871 41.9872 C 193.516871 40.099396 193.343501 38.654648 192.977498 37.672219 C 192.650022 36.670527 191.860226 36.188944 190.608111 36.188944 C 188.566201 36.188944 187.564509 38.057485 187.564509 41.833094 L 187.564509 65.681068 C 187.564509 67.530346 187.776405 68.955831 188.200198 69.976786 C 188.623991 70.978478 189.452313 71.498587 190.685165 71.498587 Z M 222.854888 81.59256 C 218.655487 81.59256 215.765991 80.205602 214.205663 77.412423 C 212.645335 74.59998 211.874803 70.593212 211.874803 65.392119 C 211.874803 61.134928 212.433439 57.879429 213.531447 55.606358 C 214.648719 53.314025 216.189784 51.638117 218.173904 50.578635 C 220.158025 49.49989 223.182364 48.324828 227.246922 47.034187 L 230.810634 45.859125 L 230.810634 40.272766 C 230.810634 38.847281 230.521685 37.749272 229.963049 36.97874 C 229.385149 36.208208 228.710934 35.822942 227.921138 35.822942 C 227.227659 35.822942 226.611233 36.131154 226.091124 36.786107 C 225.571015 37.421796 225.320592 38.288645 225.320592 39.36739 L 225.320592 42.642152 L 212.683862 42.642152 L 212.683862 40.869928 C 212.683862 35.514729 213.935977 31.700594 216.440207 29.427523 C 218.944437 27.154453 223.028258 25.998655 228.672407 25.998655 C 233.160758 25.998655 236.820786 27.173716 239.652492 29.543103 C 242.484199 31.893227 243.89042 35.206516 243.89042 39.521497 L 243.89042 80.995398 L 230.964741 80.995398 L 230.964741 74.54219 C 230.329052 76.75747 229.288833 78.510431 227.863348 79.743283 C 226.47639 80.976134 224.800482 81.59256 222.854888 81.59256 Z M 227.998191 71.498587 C 228.98062 71.498587 229.693362 71.094058 230.097892 70.284999 C 230.521685 69.456677 230.733581 68.435721 230.733581 67.241396 L 230.733581 52.100436 C 228.80725 52.832442 227.401029 53.776344 226.47639 54.932143 C 225.551751 56.068678 225.089432 57.648269 225.089432 59.670916 L 225.089432 66.644234 C 225.089432 69.880469 226.071861 71.498587 227.998191 71.498587 Z M 250.362891 26.595817 L 263.365624 26.595817 L 263.365624 33.511345 C 263.904997 31.276801 264.848899 29.46605 266.178067 28.098355 C 267.526498 26.692134 269.317986 25.998655 271.55253 25.998655 C 275.212558 25.998655 277.928684 27.13519 279.681645 29.388997 C 281.434606 31.642804 282.320719 34.859776 282.320719 39.020651 L 282.320719 80.995398 L 269.529882 80.995398 L 269.529882 40.330556 C 269.529882 39.155494 269.298723 38.134538 268.81714 37.306216 C 268.354821 36.458631 267.622815 36.034838 266.621123 36.034838 C 265.291955 36.034838 264.425106 36.651264 264.001313 37.864852 C 263.57752 39.078441 263.365624 40.696558 263.365624 42.738469 L 263.365624 80.995398 L 250.362891 80.995398 Z M 288.928033 16.790794 L 302.316032 16.790794 L 302.316032 31.951017 C 303.683727 27.982775 306.342063 25.998655 310.252515 25.998655 C 313.931806 25.998655 316.686459 27.173716 318.574263 29.504577 C 320.462068 31.835437 321.40597 35.013883 321.40597 39.078441 L 321.40597 80.995398 L 308.403237 80.995398 L 308.403237 39.906763 C 308.403237 38.712438 308.133551 37.749272 307.574915 37.017267 C 307.035542 36.265998 306.245747 35.899995 305.205528 35.899995 C 304.319416 35.899995 303.606673 36.285261 303.086564 37.055793 C 302.566455 37.807062 302.316032 38.750964 302.316032 39.82971 L 302.316032 80.995398 L 288.928033 80.995398 Z M 337.818308 81.59256 C 333.618907 81.59256 330.72941 80.205602 329.169083 77.412423 C 327.608755 74.59998 326.838222 70.593212 326.838222 65.392119 C 326.838222 61.134928 327.377595 57.879429 328.494867 55.606358 C 329.612139 53.314025 331.153203 51.638117 333.137324 50.578635 C 335.121445 49.49989 338.145784 48.324828 342.210342 47.034187 L 345.774054 45.859125 L 345.774054 40.272766 C 345.774054 38.847281 345.485104 37.749272 344.926468 36.97874 C 344.348569 36.208208 343.674353 35.822942 342.884557 35.822942 C 342.191078 35.822942 341.574653 36.131154 341.054543 36.786107 C 340.534434 37.421796 340.284011 38.288645 340.284011 39.36739 L 340.284011 42.642152 L 327.647281 42.642152 L 327.647281 40.869928 C 327.647281 35.514729 328.899396 31.700594 331.403626 29.427523 C 333.907856 27.154453 337.991677 25.998655 343.635826 25.998655 C 348.124177 25.998655 351.784206 27.173716 354.615912 29.543103 C 357.447618 31.893227 358.853839 35.206516 358.853839 39.521497 L 358.853839 80.995398 L 345.92816 80.995398 L 345.92816 74.54219 C 345.273208 76.75747 344.252252 78.510431 342.826768 79.743283 C 341.420546 80.976134 339.763902 81.59256 337.818308 81.59256 Z M 342.961611 71.498587 C 343.944039 71.498587 344.656782 71.094058 345.061311 70.284999 C 345.485104 69.456677 345.697 68.435721 345.697 67.241396 L 345.697 52.100436 C 343.77067 52.832442 342.364448 53.776344 341.439809 54.932143 C 340.515171 56.068678 340.052851 57.648269 340.052851 59.670916 L 340.052851 66.644234 C 340.052851 69.880469 341.016017 71.498587 342.961611 71.498587 Z M 365.307047 26.595817 L 378.329043 26.595817 L 378.329043 33.511345 C 378.868416 31.276801 379.812318 29.46605 381.141486 28.098355 C 382.489918 26.692134 384.262142 25.998655 386.515949 25.998655 C 390.175977 25.998655 392.892104 27.13519 394.645065 29.388997 C 396.398026 31.642804 397.284138 34.859776 397.284138 39.020651 L 397.284138 80.995398 L 384.493302 80.995398 L 384.493302 40.330556 C 384.493302 39.155494 384.262142 38.134538 383.780559 37.306216 C 383.31824 36.458631 382.586234 36.034838 381.584542 36.034838 C 380.255374 36.034838 379.388525 36.651264 378.964733 37.864852 C 378.54094 39.078441 378.329043 40.696558 378.329043 42.738469 L 378.329043 80.995398 L 365.307047 80.995398 Z M 415.121961 81.59256 C 411.693092 81.59256 409.342969 80.879818 408.033064 79.43507 C 406.761685 78.009585 406.106733 75.697988 406.106733 72.519542 L 406.106733 38.558331 L 402.485231 38.558331 L 402.485231 28.676254 L 406.106733 28.676254 L 406.106733 17.17606 L 418.762726 17.17606 L 418.762726 28.676254 L 422.461281 28.676254 L 422.461281 38.558331 L 418.762726 38.558331 L 418.762726 69.109937 C 418.762726 70.053839 418.839779 70.728055 418.974622 71.190374 C 419.128729 71.63343 419.513995 71.86459 420.168947 71.86459 C 420.65053 71.86459 421.132113 71.826063 421.575169 71.787537 C 422.018225 71.729747 422.326438 71.710484 422.461281 71.710484 L 422.461281 80.629395 C 421.729275 80.822028 420.65053 81.033924 419.244309 81.245821 C 417.818824 81.47698 416.451129 81.59256 415.121961 81.59256 Z M 443.284916 81.59256 C 437.679294 81.59256 433.653263 80.070759 431.226086 76.98863 C 428.818172 73.925764 427.604584 69.341097 427.604584 63.234628 L 427.604584 41.390037 C 427.604584 36.381577 429.030069 32.567443 431.900302 29.947633 C 434.770534 27.30856 438.796566 25.998655 443.939869 25.998655 C 454.399845 25.998655 459.620201 31.141958 459.620201 41.390037 L 459.620201 45.319752 C 459.620201 49.287994 459.581675 52.504966 459.485358 54.989933 L 440.607317 54.989933 L 440.607317 65.546225 C 440.607317 67.434029 440.79995 68.898041 441.185216 69.976786 C 441.589745 71.036268 442.437331 71.556377 443.727972 71.556377 C 444.729664 71.556377 445.423144 71.267427 445.827673 70.670265 C 446.251466 70.092366 446.501889 69.398887 446.578942 68.647618 C 446.655995 67.877085 446.694522 66.74055 446.694522 65.257275 L 446.694522 59.979129 L 459.620201 59.979129 L 459.620201 63.099785 C 459.620201 69.437413 458.406613 74.099134 455.940909 77.10421 C 453.494469 80.090022 449.275805 81.59256 443.284916 81.59256 Z M 446.694522 48.517461 L 446.694522 41.544144 C 446.694522 37.614429 445.731356 35.649572 443.805026 35.649572 C 441.609009 35.649572 440.511 37.614429 440.511 41.544144 L 440.511 48.517461 Z M 446.694522 48.517461 " stroke="#1c486f" stroke-width="19.510391" stroke-opacity="1" stroke-miterlimit="4"/><g fill="#ffffff" fill-opacity="1"><g transform="translate(42.977032, 44.727496)"><g><path d="M 0.21875 0 L 1.484375 -12.953125 L 5.859375 -12.953125 L 7.109375 0 L 4.640625 0 L 4.46875 -2.09375 L 2.890625 -2.09375 L 2.75 0 Z M 3.09375 -4.15625 L 4.265625 -4.15625 L 3.6875 -10.75 L 3.578125 -10.75 Z M 3.09375 -4.15625 "/></g></g></g><g fill="#ffffff" fill-opacity="1"><g transform="translate(50.58704, 44.727496)"><g><path d="M 3.84375 0.125 C 2.632812 0.125 1.765625 -0.179688 1.234375 -0.796875 C 0.703125 -1.410156 0.4375 -2.351562 0.4375 -3.625 L 0.4375 -7.03125 C 0.4375 -7.976562 0.539062 -8.75 0.75 -9.34375 C 0.957031 -9.945312 1.300781 -10.398438 1.78125 -10.703125 C 2.269531 -11.003906 2.945312 -11.15625 3.8125 -11.15625 C 4.757812 -11.15625 5.53125 -10.910156 6.125 -10.421875 C 6.71875 -9.929688 7.015625 -9.242188 7.015625 -8.359375 L 7.015625 -6.671875 L 4.328125 -6.671875 L 4.328125 -8.21875 C 4.328125 -8.507812 4.285156 -8.734375 4.203125 -8.890625 C 4.128906 -9.046875 3.972656 -9.125 3.734375 -9.125 C 3.304688 -9.125 3.09375 -8.816406 3.09375 -8.203125 L 3.09375 -2.84375 C 3.09375 -2.59375 3.144531 -2.378906 3.25 -2.203125 C 3.351562 -2.023438 3.507812 -1.9375 3.71875 -1.9375 C 3.9375 -1.9375 4.097656 -2.019531 4.203125 -2.1875 C 4.304688 -2.363281 4.351562 -2.585938 4.34375 -2.859375 L 4.328125 -4.71875 L 7.015625 -4.71875 L 7.015625 -2.796875 C 7.015625 -1.890625 6.71875 -1.175781 6.125 -0.65625 C 5.539062 -0.132812 4.78125 0.125 3.84375 0.125 Z M 3.84375 0.125 "/></g></g></g><g fill="#ffffff" fill-opacity="1"><g transform="translate(58.287463, 44.727496)"><g><path d="M 3.734375 0.125 C 1.535156 0.125 0.4375 -1.015625 0.4375 -3.296875 L 0.4375 -7.734375 C 0.4375 -8.773438 0.726562 -9.601562 1.3125 -10.21875 C 1.90625 -10.84375 2.710938 -11.15625 3.734375 -11.15625 C 4.765625 -11.15625 5.570312 -10.84375 6.15625 -10.21875 C 6.75 -9.601562 7.046875 -8.773438 7.046875 -7.734375 L 7.046875 -3.296875 C 7.046875 -1.015625 5.941406 0.125 3.734375 0.125 Z M 3.734375 -1.921875 C 3.953125 -1.921875 4.109375 -1.992188 4.203125 -2.140625 C 4.304688 -2.296875 4.359375 -2.503906 4.359375 -2.765625 L 4.359375 -8.15625 C 4.359375 -8.800781 4.148438 -9.125 3.734375 -9.125 C 3.328125 -9.125 3.125 -8.800781 3.125 -8.15625 L 3.125 -2.765625 C 3.125 -2.503906 3.171875 -2.296875 3.265625 -2.140625 C 3.367188 -1.992188 3.523438 -1.921875 3.734375 -1.921875 Z M 3.734375 -1.921875 "/></g></g></g><g fill="#ffffff" fill-opacity="1"><g transform="translate(66.078301, 44.727496)"><g><path d="M 0.53125 -11.03125 L 3.109375 -11.03125 L 3.109375 -9.75 C 3.222656 -10.226562 3.425781 -10.582031 3.71875 -10.8125 C 4.007812 -11.039062 4.421875 -11.15625 4.953125 -11.15625 C 5.390625 -11.15625 5.765625 -11.054688 6.078125 -10.859375 C 6.398438 -10.660156 6.625 -10.394531 6.75 -10.0625 C 6.976562 -10.4375 7.226562 -10.710938 7.5 -10.890625 C 7.769531 -11.066406 8.144531 -11.15625 8.625 -11.15625 C 9.488281 -11.15625 10.085938 -10.890625 10.421875 -10.359375 C 10.765625 -9.835938 10.9375 -9.070312 10.9375 -8.0625 L 10.90625 0 L 8.25 0 L 8.25 -8.109375 C 8.25 -8.828125 8.066406 -9.1875 7.703125 -9.1875 C 7.453125 -9.1875 7.269531 -9.0625 7.15625 -8.8125 C 7.050781 -8.5625 7 -8.269531 7 -7.9375 L 7 0 L 4.359375 0 L 4.359375 -8.109375 C 4.359375 -8.421875 4.320312 -8.671875 4.25 -8.859375 C 4.1875 -9.054688 4.050781 -9.15625 3.84375 -9.15625 C 3.570312 -9.15625 3.378906 -9.019531 3.265625 -8.75 C 3.160156 -8.488281 3.109375 -8.171875 3.109375 -7.796875 L 3.109375 0 L 0.53125 0 Z M 0.53125 -11.03125 "/></g></g></g><g fill="#ffffff" fill-opacity="1"><g transform="translate(77.802208, 44.727496)"><g><path d="M 0.53125 -11.03125 L 3.21875 -11.03125 L 3.21875 -10.453125 C 3.59375 -10.921875 4.117188 -11.15625 4.796875 -11.15625 C 5.648438 -11.15625 6.242188 -10.867188 6.578125 -10.296875 C 6.921875 -9.722656 7.09375 -8.929688 7.09375 -7.921875 L 7.09375 -3.828125 C 7.09375 -2.960938 7.039062 -2.253906 6.9375 -1.703125 C 6.832031 -1.160156 6.609375 -0.71875 6.265625 -0.375 C 5.929688 -0.0390625 5.414062 0.125 4.71875 0.125 C 4.050781 0.125 3.550781 -0.0625 3.21875 -0.4375 L 3.21875 2.203125 L 0.53125 2.203125 Z M 3.84375 -1.9375 C 4.082031 -1.9375 4.238281 -2.046875 4.3125 -2.265625 C 4.382812 -2.484375 4.421875 -2.804688 4.421875 -3.234375 L 4.421875 -7.921875 C 4.421875 -8.296875 4.382812 -8.582031 4.3125 -8.78125 C 4.238281 -8.988281 4.078125 -9.09375 3.828125 -9.09375 C 3.421875 -9.09375 3.21875 -8.710938 3.21875 -7.953125 L 3.21875 -3.109375 C 3.21875 -2.734375 3.257812 -2.441406 3.34375 -2.234375 C 3.425781 -2.035156 3.59375 -1.9375 3.84375 -1.9375 Z M 3.84375 -1.9375 "/></g></g></g><g fill="#ffffff" fill-opacity="1"><g transform="translate(85.638254, 44.727496)"><g><path d="M 2.53125 0.125 C 1.675781 0.125 1.085938 -0.15625 0.765625 -0.71875 C 0.453125 -1.289062 0.296875 -2.109375 0.296875 -3.171875 C 0.296875 -4.035156 0.410156 -4.695312 0.640625 -5.15625 C 0.867188 -5.613281 1.179688 -5.953125 1.578125 -6.171875 C 1.984375 -6.390625 2.597656 -6.628906 3.421875 -6.890625 L 4.140625 -7.125 L 4.140625 -8.265625 C 4.140625 -8.554688 4.082031 -8.78125 3.96875 -8.9375 C 3.851562 -9.09375 3.71875 -9.171875 3.5625 -9.171875 C 3.414062 -9.171875 3.289062 -9.101562 3.1875 -8.96875 C 3.082031 -8.84375 3.03125 -8.664062 3.03125 -8.4375 L 3.03125 -7.78125 L 0.46875 -7.78125 L 0.46875 -8.140625 C 0.46875 -9.222656 0.71875 -9.992188 1.21875 -10.453125 C 1.726562 -10.921875 2.554688 -11.15625 3.703125 -11.15625 C 4.617188 -11.15625 5.363281 -10.914062 5.9375 -10.4375 C 6.507812 -9.957031 6.796875 -9.28125 6.796875 -8.40625 L 6.796875 0 L 4.171875 0 L 4.171875 -1.3125 C 4.046875 -0.863281 3.835938 -0.507812 3.546875 -0.25 C 3.265625 0 2.925781 0.125 2.53125 0.125 Z M 3.578125 -1.9375 C 3.773438 -1.9375 3.914062 -2.015625 4 -2.171875 C 4.082031 -2.335938 4.125 -2.546875 4.125 -2.796875 L 4.125 -5.859375 C 3.738281 -5.710938 3.453125 -5.523438 3.265625 -5.296875 C 3.078125 -5.066406 2.984375 -4.742188 2.984375 -4.328125 L 2.984375 -2.90625 C 2.984375 -2.257812 3.179688 -1.9375 3.578125 -1.9375 Z M 3.578125 -1.9375 "/></g></g></g><g fill="#ffffff" fill-opacity="1"><g transform="translate(93.218125, 44.727496)"><g><path d="M 0.53125 -11.03125 L 3.171875 -11.03125 L 3.171875 -9.640625 C 3.273438 -10.085938 3.460938 -10.453125 3.734375 -10.734375 C 4.003906 -11.015625 4.367188 -11.15625 4.828125 -11.15625 C 5.566406 -11.15625 6.113281 -10.925781 6.46875 -10.46875 C 6.832031 -10.007812 7.015625 -9.359375 7.015625 -8.515625 L 7.015625 0 L 4.421875 0 L 4.421875 -8.25 C 4.421875 -8.488281 4.367188 -8.691406 4.265625 -8.859375 C 4.171875 -9.035156 4.023438 -9.125 3.828125 -9.125 C 3.554688 -9.125 3.378906 -9 3.296875 -8.75 C 3.210938 -8.507812 3.171875 -8.179688 3.171875 -7.765625 L 3.171875 0 L 0.53125 0 Z M 0.53125 -11.03125 "/></g></g></g><g fill="#ffffff" fill-opacity="1"><g transform="translate(101.039099, 44.727496)"><g><path d="M 0.53125 -13.03125 L 3.234375 -13.03125 L 3.234375 -9.953125 C 3.515625 -10.753906 4.054688 -11.15625 4.859375 -11.15625 C 5.597656 -11.15625 6.15625 -10.914062 6.53125 -10.4375 C 6.914062 -9.96875 7.109375 -9.320312 7.109375 -8.5 L 7.109375 0 L 4.484375 0 L 4.484375 -8.34375 C 4.484375 -8.582031 4.425781 -8.773438 4.3125 -8.921875 C 4.195312 -9.078125 4.035156 -9.15625 3.828125 -9.15625 C 3.648438 -9.15625 3.503906 -9.078125 3.390625 -8.921875 C 3.285156 -8.765625 3.234375 -8.578125 3.234375 -8.359375 L 3.234375 0 L 0.53125 0 Z M 0.53125 -13.03125 "/></g></g></g><g fill="#ffffff" fill-opacity="1"><g transform="translate(108.950489, 44.727496)"><g><path d="M 2.53125 0.125 C 1.675781 0.125 1.085938 -0.15625 0.765625 -0.71875 C 0.453125 -1.289062 0.296875 -2.109375 0.296875 -3.171875 C 0.296875 -4.035156 0.410156 -4.695312 0.640625 -5.15625 C 0.867188 -5.613281 1.179688 -5.953125 1.578125 -6.171875 C 1.984375 -6.390625 2.597656 -6.628906 3.421875 -6.890625 L 4.140625 -7.125 L 4.140625 -8.265625 C 4.140625 -8.554688 4.082031 -8.78125 3.96875 -8.9375 C 3.851562 -9.09375 3.71875 -9.171875 3.5625 -9.171875 C 3.414062 -9.171875 3.289062 -9.101562 3.1875 -8.96875 C 3.082031 -8.84375 3.03125 -8.664062 3.03125 -8.4375 L 3.03125 -7.78125 L 0.46875 -7.78125 L 0.46875 -8.140625 C 0.46875 -9.222656 0.71875 -9.992188 1.21875 -10.453125 C 1.726562 -10.921875 2.554688 -11.15625 3.703125 -11.15625 C 4.617188 -11.15625 5.363281 -10.914062 5.9375 -10.4375 C 6.507812 -9.957031 6.796875 -9.28125 6.796875 -8.40625 L 6.796875 0 L 4.171875 0 L 4.171875 -1.3125 C 4.046875 -0.863281 3.835938 -0.507812 3.546875 -0.25 C 3.265625 0 2.925781 0.125 2.53125 0.125 Z M 3.578125 -1.9375 C 3.773438 -1.9375 3.914062 -2.015625 4 -2.171875 C 4.082031 -2.335938 4.125 -2.546875 4.125 -2.796875 L 4.125 -5.859375 C 3.738281 -5.710938 3.453125 -5.523438 3.265625 -5.296875 C 3.078125 -5.066406 2.984375 -4.742188 2.984375 -4.328125 L 2.984375 -2.90625 C 2.984375 -2.257812 3.179688 -1.9375 3.578125 -1.9375 Z M 3.578125 -1.9375 "/></g></g></g><g fill="#ffffff" fill-opacity="1"><g transform="translate(116.53036, 44.727496)"><g><path d="M 0.53125 -11.03125 L 3.171875 -11.03125 L 3.171875 -9.640625 C 3.273438 -10.085938 3.460938 -10.453125 3.734375 -10.734375 C 4.003906 -11.015625 4.367188 -11.15625 4.828125 -11.15625 C 5.566406 -11.15625 6.113281 -10.925781 6.46875 -10.46875 C 6.832031 -10.007812 7.015625 -9.359375 7.015625 -8.515625 L 7.015625 0 L 4.421875 0 L 4.421875 -8.25 C 4.421875 -8.488281 4.367188 -8.691406 4.265625 -8.859375 C 4.171875 -9.035156 4.023438 -9.125 3.828125 -9.125 C 3.554688 -9.125 3.378906 -9 3.296875 -8.75 C 3.210938 -8.507812 3.171875 -8.179688 3.171875 -7.765625 L 3.171875 0 L 0.53125 0 Z M 0.53125 -11.03125 "/></g></g></g><g fill="#ffffff" fill-opacity="1"><g transform="translate(124.351337, 44.727496)"><g><path d="M 2.796875 0.125 C 2.109375 0.125 1.632812 -0.0195312 1.375 -0.3125 C 1.113281 -0.601562 0.984375 -1.070312 0.984375 -1.71875 L 0.984375 -8.609375 L 0.234375 -8.609375 L 0.234375 -10.609375 L 0.984375 -10.609375 L 0.984375 -12.953125 L 3.546875 -12.953125 L 3.546875 -10.609375 L 4.296875 -10.609375 L 4.296875 -8.609375 L 3.546875 -8.609375 L 3.546875 -2.40625 C 3.546875 -2.21875 3.5625 -2.078125 3.59375 -1.984375 C 3.625 -1.898438 3.703125 -1.859375 3.828125 -1.859375 C 3.929688 -1.859375 4.023438 -1.863281 4.109375 -1.875 C 4.203125 -1.882812 4.265625 -1.890625 4.296875 -1.890625 L 4.296875 -0.078125 C 4.148438 -0.0351562 3.929688 0.00390625 3.640625 0.046875 C 3.359375 0.0976562 3.078125 0.125 2.796875 0.125 Z M 2.796875 0.125 "/></g></g></g><g fill="#ffffff" fill-opacity="1"><g transform="translate(129.248884, 44.727496)"><g><path d="M 3.625 0.125 C 2.488281 0.125 1.671875 -0.1875 1.171875 -0.8125 C 0.679688 -1.4375 0.4375 -2.367188 0.4375 -3.609375 L 0.4375 -8.03125 C 0.4375 -9.050781 0.726562 -9.828125 1.3125 -10.359375 C 1.894531 -10.890625 2.707031 -11.15625 3.75 -11.15625 C 5.875 -11.15625 6.9375 -10.113281 6.9375 -8.03125 L 6.9375 -7.234375 C 6.9375 -6.429688 6.925781 -5.78125 6.90625 -5.28125 L 3.078125 -5.28125 L 3.078125 -3.140625 C 3.078125 -2.753906 3.113281 -2.453125 3.1875 -2.234375 C 3.269531 -2.023438 3.441406 -1.921875 3.703125 -1.921875 C 3.910156 -1.921875 4.054688 -1.976562 4.140625 -2.09375 C 4.222656 -2.21875 4.269531 -2.359375 4.28125 -2.515625 C 4.300781 -2.671875 4.3125 -2.898438 4.3125 -3.203125 L 4.3125 -4.265625 L 6.9375 -4.265625 L 6.9375 -3.640625 C 6.9375 -2.347656 6.6875 -1.394531 6.1875 -0.78125 C 5.6875 -0.175781 4.832031 0.125 3.625 0.125 Z M 4.3125 -6.59375 L 4.3125 -8 C 4.3125 -8.800781 4.113281 -9.203125 3.71875 -9.203125 C 3.28125 -9.203125 3.0625 -8.800781 3.0625 -8 L 3.0625 -6.59375 Z M 4.3125 -6.59375 "/></g></g></g></svg>